<svg xmlns="http://www.w3.org/2000/svg" xmlns:xlink="http://www.w3.org/1999/xlink" viewBox="0 0 1920 1080"><defs><style>.cls-1,.cls-16{fill:none;}.cls-2{isolation:isolate;}.cls-3{fill:#9ac2fc;}.cls-4{clip-path:url(#clip-path);}.cls-5{fill:#8bb6ea;}.cls-10,.cls-6,.cls-9{fill:#fff;}.cls-16,.cls-6,.cls-7,.cls-8,.cls-9{stroke:#232b35;}.cls-16,.cls-6{stroke-linecap:round;stroke-linejoin:round;}.cls-6{stroke-width:1.54px;}.cls-7{fill:#2f6aaf;}.cls-7,.cls-8,.cls-9{stroke-miterlimit:10;stroke-width:2.14px;}.cls-8{fill:#265599;}.cls-11{fill:#d4eff9;}.cls-12{fill:#ff404e;}.cls-13,.cls-15{fill:#b4d5ed;}.cls-13,.cls-14,.cls-15{mix-blend-mode:multiply;}.cls-14{fill:#e3f8ff;}.cls-15{opacity:0.3;}.cls-16{stroke-width:2.5px;}.cls-17{fill:#2a5aa0;}.cls-18{fill:#326cb2;}.cls-19{fill:#4686c6;}.cls-20{fill:#232b35;}</style><clipPath id="clip-path"><rect class="cls-1" width="1920" height="1080"/></clipPath></defs><g class="cls-2"><g id="BACKGROUND"><rect class="cls-3" width="1920" height="1080"/></g><g id="OBJECTS"><g class="cls-4"><polygon class="cls-5" points="956.22 602.87 890.53 -529.1 1029.47 -529.1 963.78 602.87 956.22 602.87 956.22 602.87"/><polygon class="cls-5" points="956.45 604.16 507.56 -437.07 638.13 -484.59 963.55 601.57 956.45 604.16 956.45 604.16"/><polygon class="cls-5" points="957.11 605.29 179.17 -219.61 285.61 -308.93 962.89 600.44 957.11 605.29 957.11 605.29"/><polygon class="cls-5" points="958.11 606.14 -55.05 97.05 14.43 -23.28 961.89 599.59 958.11 606.14 958.11 606.14"/><polygon class="cls-5" points="959.34 606.59 -166.83 474.72 -142.7 337.88 960.66 599.14 959.34 606.59 959.34 606.59"/><polygon class="cls-5" points="960.66 606.59 -142.7 867.85 -166.83 731.01 959.34 599.14 960.66 606.59 960.66 606.59"/><polygon class="cls-5" points="961.89 606.14 14.43 1229.01 -55.05 1108.68 958.11 599.59 961.89 606.14 961.89 606.14"/><polygon class="cls-5" points="962.89 605.29 285.61 1514.65 179.17 1425.34 957.11 600.44 962.89 605.29 962.89 605.29"/><polygon class="cls-5" points="963.55 604.16 638.13 1690.32 507.56 1642.8 956.45 601.57 963.55 604.16 963.55 604.16"/><polygon class="cls-5" points="963.78 602.87 1029.47 1734.83 890.53 1734.83 956.22 602.87 963.78 602.87 963.78 602.87"/><polygon class="cls-5" points="963.55 601.57 1412.44 1642.8 1281.87 1690.32 956.45 604.16 963.55 601.57 963.55 601.57"/><polygon class="cls-5" points="962.89 600.44 1740.83 1425.34 1634.39 1514.65 957.11 605.29 962.89 600.44 962.89 600.44"/><polygon class="cls-5" points="961.89 599.59 1975.05 1108.68 1905.57 1229.01 958.11 606.14 961.89 599.59 961.89 599.59"/><polygon class="cls-5" points="960.66 599.14 2086.83 731.01 2062.7 867.85 959.34 606.59 960.66 599.14 960.66 599.14"/><polygon class="cls-5" points="959.34 599.14 2062.7 337.88 2086.83 474.72 960.66 606.59 959.34 599.14 959.34 599.14"/><polygon class="cls-5" points="958.11 599.59 1905.57 -23.28 1975.05 97.05 961.89 606.14 958.11 599.59 958.11 599.59"/><polygon class="cls-5" points="957.11 600.44 1634.39 -308.93 1740.83 -219.61 962.89 605.29 957.11 600.44 957.11 600.44"/><polygon class="cls-5" points="956.45 601.57 1281.87 -484.59 1412.44 -437.07 963.55 604.16 956.45 601.57 956.45 601.57"/></g><polygon class="cls-6" points="1700.97 297.3 1704.39 307.82 1715.44 307.82 1706.5 314.32 1709.92 324.84 1700.97 318.34 1692.02 324.84 1695.44 314.32 1686.49 307.82 1697.55 307.82 1700.97 297.3"/><polygon class="cls-6" points="1805.58 580.26 1809 590.77 1820.06 590.77 1811.11 597.27 1814.53 607.79 1805.58 601.29 1796.64 607.79 1800.06 597.27 1791.11 590.77 1802.17 590.77 1805.58 580.26"/><polygon class="cls-6" points="1261.48 354.22 1266.28 368.97 1281.79 368.97 1269.24 378.09 1274.03 392.84 1261.48 383.72 1248.93 392.84 1253.73 378.09 1241.18 368.97 1256.69 368.97 1261.48 354.22"/><polygon class="cls-6" points="1051.82 299.69 1054.64 308.38 1063.79 308.38 1056.39 313.76 1059.21 322.45 1051.82 317.08 1044.42 322.45 1047.24 313.76 1039.85 308.38 1048.99 308.38 1051.82 299.69"/><polygon class="cls-6" points="1796.06 440.38 1798.88 449.08 1808.03 449.08 1800.63 454.45 1803.46 463.15 1796.06 457.77 1788.66 463.15 1791.49 454.45 1784.09 449.08 1793.23 449.08 1796.06 440.38"/><polygon class="cls-6" points="1146.07 433.61 1148.9 442.31 1158.04 442.31 1150.64 447.68 1153.47 456.38 1146.07 451.01 1138.67 456.38 1141.5 447.68 1134.1 442.31 1143.25 442.31 1146.07 433.61"/><polygon class="cls-6" points="909.12 672.03 911.95 680.73 921.09 680.73 913.69 686.1 916.52 694.8 909.12 689.42 901.72 694.8 904.55 686.1 897.15 680.73 906.29 680.73 909.12 672.03"/><polygon class="cls-6" points="1870.03 503.55 1872.86 512.25 1882 512.25 1874.6 517.63 1877.43 526.32 1870.03 520.95 1862.63 526.32 1865.46 517.63 1858.06 512.25 1867.2 512.25 1870.03 503.55"/><polygon class="cls-6" points="1568.35 396.38 1573.36 411.78 1589.56 411.78 1576.45 421.3 1581.46 436.71 1568.35 427.19 1555.25 436.71 1560.25 421.3 1547.15 411.78 1563.35 411.78 1568.35 396.38"/><polygon class="cls-6" points="1005.05 605.43 1011.55 625.44 1032.6 625.44 1015.57 637.81 1022.08 657.82 1005.05 645.45 988.03 657.82 994.53 637.81 977.51 625.44 998.55 625.44 1005.05 605.43"/><polygon class="cls-6" points="945.3 560.45 948.19 569.34 957.54 569.34 949.97 574.84 952.86 583.73 945.3 578.23 937.74 583.73 940.62 574.84 933.06 569.34 942.41 569.34 945.3 560.45"/><polygon class="cls-6" points="1452.12 293.87 1455.01 302.76 1464.36 302.76 1456.8 308.26 1459.68 317.15 1452.12 311.65 1444.56 317.15 1447.45 308.26 1439.88 302.76 1449.23 302.76 1452.12 293.87"/><g class="cls-4"><polygon class="cls-7" points="564.88 1099.29 960.94 1099.29 1442.57 528.55 564.88 1099.29"/><polygon class="cls-7" points="886.36 1099.29 960.94 1099.29 1442.57 528.55 886.36 1099.29"/><polygon class="cls-8" points="673.06 1099.29 895.56 1099.29 1442.57 528.55 673.06 1099.29"/><polygon class="cls-7" points="2320.26 1099.29 1924.2 1099.29 1442.57 528.55 2320.26 1099.29"/><polygon class="cls-7" points="1998.77 1099.29 1924.2 1099.29 1442.57 528.55 1998.77 1099.29"/><polygon class="cls-8" points="2212.07 1099.29 1989.58 1099.29 1442.57 528.55 2212.07 1099.29"/><polygon class="cls-9" points="1931.32 1099.29 960.94 1099.29 1442.57 528.55 1931.32 1099.29"/><polygon class="cls-10" points="449.2 1095.17 1240.13 638.57 353.35 1095.17 449.2 1095.17"/><polygon class="cls-10" points="230.44 1102.17 796.39 828.43 185.5 1102.17 230.44 1102.17"/><polygon class="cls-10" points="765.58 1137.02 1172.57 767.88 678.87 1137.02 765.58 1137.02"/><polygon class="cls-11" points="1402.23 630.02 1126.13 1118.53 1188.08 1118.53 1402.23 630.02"/><polygon class="cls-11" points="1027.96 1111.76 1264.18 801.46 1068.36 1099.29 1027.96 1111.76"/><polygon class="cls-10" points="2435.94 1095.17 1645.01 638.57 2531.79 1095.17 2435.94 1095.17"/><polygon class="cls-10" points="2119.55 1137.02 1712.56 767.88 2206.27 1137.02 2119.55 1137.02"/><polygon class="cls-11" points="1482.9 630.02 1759.01 1118.53 1697.06 1118.53 1482.9 630.02"/><polygon class="cls-11" points="1857.17 1111.76 1620.96 801.46 1816.78 1099.29 1857.17 1111.76"/><path class="cls-10" d="M1350.61,554.58c-34.51-50.89-71.23-55.16-106.19-93.59l-42.92,29.12c22.77,46.69,13.15,82.38,47.67,133.27,22.52,33.21,69.47,59.73,87.87,69.25l45.41-30.8C1380.41,641.22,1373.13,587.79,1350.61,554.58Z"/><path class="cls-10" d="M1228.68,440.92a135.23,135.23,0,0,1-7.28-12.21L1180,456.78a133.41,133.41,0,0,1,8.66,11.27c.95,1.4,1.85,2.78,2.73,4.16L1231.53,445C1230.58,443.67,1229.63,442.32,1228.68,440.92Z"/><path class="cls-10" d="M1191.14,369.52c-15.35-22.64-35-20.6-48.05-11.73s-22.23,26.35-6.87,49c8.5,12.54,19.45,23.75,29.86,34.72l46.27-31.38C1206,396.37,1199.65,382.06,1191.14,369.52Z"/><path class="cls-10" d="M1212.35,410.11l-46.27,31.38c4.86,5.11,9.61,10.17,13.93,15.29l41.39-28.07C1218.25,422.8,1215.3,416.51,1212.35,410.11Z"/><path class="cls-12" d="M1209.91,411.76l-41.39,28.07c4.76,5.18,9.41,10.31,13.68,15.47l37-25.11C1216,424.32,1213,418.1,1209.91,411.76Z"/><path class="cls-10" d="M1231.53,445l-40.13,27.21a175.71,175.71,0,0,1,10.1,17.9L1244.42,461A174.07,174.07,0,0,1,1231.53,445Z"/><path class="cls-12" d="M1228.26,447.21,1194.67,470c4,6.15,7.38,12.05,10.32,17.74l35.93-24.36C1236.72,458.53,1232.5,453.19,1228.26,447.21Z"/><path class="cls-13" d="M1242.72,462.15a192.49,192.49,0,0,1-12.79-16.07c-1-1.33-1.9-2.68-2.84-4.08-2.59-3.82-5-7.9-7.33-12.18-3.2-5.88-6.21-12.11-9.24-18.47-6.49-13.63-13-27.82-21.54-40.36-15.35-22.64-33.86-21.35-46-13.16l-.72.54c10.14-6.43,23.22-3.86,38.27,18.32,8.5,12.54,15.39,26.5,22.19,39.91,3.17,6.26,6.32,12.4,9.61,18.23,2.39,4.22,4.85,8.28,7.43,12.1,1,1.4,1.9,2.75,2.84,4.09,4.23,6,8.42,11.34,12.57,16.21,33.57,39.37,65,47.23,99.51,98.12,22.52,33.21,37.2,81.62,41.11,101l4.81-3.26c-2.67-20.18-11.46-72.59-34-105.8C1312.16,506.36,1277.21,500.89,1242.72,462.15Z"/><path class="cls-13" d="M1204.44,488.11c-3-5.66-6.43-11.53-10.43-17.67-.89-1.37-1.79-2.75-2.74-4.15-2.59-3.81-5.45-7.6-8.49-11.38-4.19-5.21-8.73-10.42-13.37-15.68-9.93-11.29-20.34-22.87-28.84-35.41-11.87-17.49-11.1-30.51-5.52-38.67-7.07,9.17-9.14,23.07,2.72,40.57,8.51,12.54,19.26,23.88,29.5,35,4.78,5.17,9.45,10.28,13.73,15.43,3.11,3.74,6,7.5,8.6,11.31,1,1.4,1.85,2.78,2.74,4.16a192.88,192.88,0,0,1,10.21,17.81c23.28,46.35,15.61,80.73,50.12,131.61,22.52,33.21,67.81,60.86,85.52,70.85l2.08-1.41c-16.48-10.82-58.78-40.5-81.3-73.71C1224.46,565.84,1228.64,533.84,1204.44,488.11Z"/><path class="cls-14" d="M1272.43,607.61c-34.52-50.89-40-76.33-66.77-120.33-3.31-5.44-7-11.18-11-17.28-.9-1.36-1.82-2.73-2.77-4.13-2.59-3.81-5.34-7.67-8.2-11.57-4-5.38-8.11-10.84-12.34-16.38-9.09-11.86-18.54-24.09-27-36.63-11.14-16.42-13.54-25.62-12.29-30.62-3.28,8.44-2.32,19.92,7.26,34,8.5,12.54,19.07,24,29.15,35.2,4.7,5.22,9.3,10.38,13.53,15.57,3.07,3.76,6,7.53,8.54,11.35,1,1.39,1.86,2.78,2.74,4.15,4,6.15,7.39,12,10.33,17.74,23.77,46,18,79.12,52.48,130,22.53,33.21,66.22,61.94,83.26,72.37,4.43,2.71,7.06,4.19,7.06,4.19l1-.7s-2-1.92-5.37-5.32C1329,676.12,1295,640.82,1272.43,607.61Z"/><path class="cls-15" d="M1235.18,469.53c-4.16-4.82-8.34-10.12-12.54-16-.94-1.33-1.88-2.67-2.82-4.06-2.57-3.78-5-7.82-7.35-12-3.23-5.8-6.32-11.92-9.42-18.17-6.65-13.38-13.39-27.31-21.83-39.75-15.24-22.47-32.12-22.2-42.75-15a24.76,24.76,0,0,0-8.11,9,5.76,5.76,0,0,1,1.41-1.34c4.42-3,13-.76,28.27,21.71,8.44,12.44,16.26,25.63,23.88,38.35,3.56,5.94,7.07,11.78,10.59,17.39,2.55,4.07,5.1,8,7.67,11.81q1.41,2.07,2.79,4.07c4.13,6,8.08,11.44,11.88,16.5,30.71,40.85,52,55.37,86.24,105.88,22.36,33,42.56,77.18,49.94,94,1.91,4.37,3,6.89,3,6.89l1.64-1.11L1373.28,677s-.42-3-1.33-8c-3.49-19.46-14.28-70.08-36.63-103C1301.06,515.48,1268.78,508.41,1235.18,469.53Z"/><path class="cls-12" d="M1363.91,683.37l19.24-13s-.17-3.14-.7-8.49L1337,692.63c4.77,2.47,7.62,3.8,7.62,3.8Z"/><path class="cls-16" d="M1350.61,554.58c-34.51-50.89-71.23-55.16-106.19-93.59l-42.92,29.12c22.77,46.69,13.15,82.38,47.67,133.27,22.52,33.21,69.47,59.73,87.87,69.25l45.41-30.8C1380.41,641.22,1373.13,587.79,1350.61,554.58Z"/><path class="cls-16" d="M1228.68,440.92a135.23,135.23,0,0,1-7.28-12.21L1180,456.78a133.41,133.41,0,0,1,8.66,11.27c.95,1.4,1.85,2.78,2.73,4.16L1231.53,445C1230.58,443.67,1229.63,442.32,1228.68,440.92Z"/><path class="cls-16" d="M1191.14,369.52c-15.35-22.64-35-20.6-48.05-11.73s-22.23,26.35-6.87,49c8.5,12.54,19.45,23.75,29.86,34.72l46.27-31.38C1206,396.37,1199.65,382.06,1191.14,369.52Z"/><path class="cls-16" d="M1212.35,410.11l-46.27,31.38c4.86,5.11,9.61,10.17,13.93,15.29l41.39-28.07C1218.25,422.8,1215.3,416.51,1212.35,410.11Z"/><path class="cls-16" d="M1231.53,445l-40.13,27.21a175.71,175.71,0,0,1,10.1,17.9L1244.42,461A174.07,174.07,0,0,1,1231.53,445Z"/><path class="cls-16" d="M1363.91,683.37l19.24-13s-.17-3.14-.7-8.49L1337,692.63c4.77,2.47,7.62,3.8,7.62,3.8Z"/><path class="cls-10" d="M1719.56,676.29c19.63-34,11.87-56.27,24.22-87l-28.67-16.56c-20.49,26.07-43.67,30.48-63.3,64.46-12.82,22.18-15,56.53-15.34,69.75l30.33,17.52C1678.07,717.51,1706.74,698.47,1719.56,676.29Z"/><path class="cls-10" d="M1750.93,574.62a85.12,85.12,0,0,1,5-7.58l-27.64-16a86.41,86.41,0,0,1-4.07,8.11c-.54.94-1.08,1.84-1.63,2.73l26.8,15.48C1749.88,576.47,1750.39,575.55,1750.93,574.62Z"/><path class="cls-10" d="M1781.51,533.19c8.73-15.12,2.1-25.82-6.63-30.87s-21.32-5.44-30.06,9.68c-4.83,8.38-8.23,17.78-11.63,26.82l30.9,17.85C1770.22,549.21,1776.67,541.57,1781.51,533.19Z"/><path class="cls-10" d="M1764.09,556.67l-30.9-17.85c-1.59,4.21-3.17,8.34-4.91,12.25l27.64,16C1758.44,563.59,1761.23,560.15,1764.09,556.67Z"/><path class="cls-12" d="M1762.46,555.72l-27.64-16c-1.65,4.17-3.31,8.27-5.08,12.16l24.72,14.28C1756.94,562.72,1759.67,559.24,1762.46,555.72Z"/><path class="cls-10" d="M1749.38,577.39l-26.8-15.48a111.3,111.3,0,0,1-7.47,10.78l28.67,16.56A111.55,111.55,0,0,1,1749.38,577.39Z"/><path class="cls-12" d="M1747.2,576.13l-22.43-13c-2.43,4-4.87,7.59-7.32,10.87l24,13.86C1743.05,584.14,1744.94,580.23,1747.2,576.13Z"/><path class="cls-13" d="M1742.64,588.59a123,123,0,0,1,5.67-11.82c.51-.91,1-1.83,1.56-2.76,1.47-2.55,3.14-5.08,5-7.6,2.49-3.48,5.24-6.94,8-10.45,6-7.52,12.35-15.23,17.19-23.6,8.74-15.12,2.84-25.4-5.23-30.06l-.5-.26c6.51,4,8.67,12.26.12,27.08-4.84,8.37-10.94,16.21-16.76,23.85-2.71,3.56-5.36,7.08-7.79,10.59-1.77,2.55-3.42,5.09-4.89,7.64-.54.93-1,1.85-1.56,2.76-2.26,4.1-4.17,8-5.82,11.74-13.28,30.24-9.05,50.48-28.68,84.46-12.81,22.18-36.54,44.08-46.56,51.71l3.21,1.86c10.85-7.15,38.51-26.78,51.32-49C1736.56,640.79,1730,619.19,1742.64,588.59Z"/><path class="cls-13" d="M1717.07,573.82c2.42-3.29,4.84-6.9,7.26-10.9.54-.9,1.08-1.8,1.62-2.73,1.47-2.55,2.85-5.25,4.17-8.05,1.83-3.86,3.56-7.91,5.3-12,3.72-8.85,7.47-18.05,12.31-26.42,6.75-11.69,14.44-14.86,20.68-13.93-7.24-1.51-15.8,1.17-22.55,12.85-4.84,8.38-8.36,17.71-11.87,26.67-1.64,4.19-3.28,8.29-5,12.19-1.28,2.82-2.64,5.53-4.11,8.08q-.81,1.4-1.62,2.73a122.53,122.53,0,0,1-7.4,10.82c-20.15,26.27-42,31.43-61.66,65.41-12.82,22.18-16.1,55.89-16.91,68.84l1.39.81c1.63-12.48,6.91-45,19.72-67.21C1678,607,1697.54,600.45,1717.07,573.82Z"/><path class="cls-14" d="M1667.34,646.13c19.63-34,32.72-44.23,50.55-71.84,2.21-3.41,4.49-7.1,6.86-11.13.53-.89,1.07-1.8,1.61-2.74q2.21-3.82,4.37-7.93c2-3.76,4-7.67,6-11.65,4.29-8.52,8.68-17.35,13.52-25.72,6.33-11,11-14.91,14.18-15.58-5.77.46-12.09,4.21-17.54,13.64-4.84,8.37-8.48,17.63-12.11,26.54-1.69,4.15-3.38,8.23-5.18,12.1-1.3,2.81-2.67,5.52-4.14,8.07-.54.93-1.08,1.83-1.62,2.73-2.43,4-4.87,7.59-7.32,10.86-19.82,26.46-40.46,32.34-60.09,66.33-12.81,22.17-17.17,55.27-18.42,68-.32,3.3-.44,5.22-.44,5.22l.68.39s.56-1.67,1.57-4.56C1643.71,697.66,1654.53,668.3,1667.34,646.13Z"/><path class="cls-15" d="M1736.3,586.31c1.61-3.72,3.5-7.6,5.73-11.67.5-.91,1-1.82,1.55-2.74,1.46-2.53,3.11-5,4.87-7.57,2.43-3.47,5.09-7,7.81-10.47,5.84-7.55,12-15.29,16.77-23.6,8.67-15,3.82-24.63-3.28-28.73a15.89,15.89,0,0,0-7.42-2.16,3.77,3.77,0,0,1,1.16.44c3,1.7,4.06,7.27-4.61,22.28-4.8,8.31-10.2,16.47-15.39,24.39-2.42,3.69-4.8,7.34-7,10.92-1.63,2.59-3.19,5.16-4.65,7.69-.54.93-1.06,1.83-1.57,2.73-2.28,4-4.32,7.83-6.17,11.42-14.92,29-17.35,45.27-36.83,79-12.72,22-32.5,45.93-40.12,54.85-2,2.31-3.13,3.62-3.13,3.62l1.09.63,10.45,6s1.58-1.07,4.23-3c10.21-7.42,36.28-27.7,49-49.71C1728.24,637,1723.31,616.44,1736.3,586.31Z"/><path class="cls-12" d="M1649.26,719.76l12.86,7.43s1.75-1,4.68-2.77l-30.33-17.52c-.09,3.43-.06,5.44-.06,5.44Z"/><path class="cls-16" d="M1719.56,676.29c19.63-34,11.87-56.27,24.22-87l-28.67-16.56c-20.49,26.07-43.67,30.48-63.3,64.46-12.82,22.18-15,56.53-15.34,69.75l30.33,17.52C1678.07,717.51,1706.74,698.47,1719.56,676.29Z"/><path class="cls-16" d="M1750.93,574.62a85.12,85.12,0,0,1,5-7.58l-27.64-16a86.41,86.41,0,0,1-4.07,8.11c-.54.94-1.08,1.84-1.63,2.73l26.8,15.48C1749.88,576.47,1750.39,575.55,1750.93,574.62Z"/><path class="cls-16" d="M1781.51,533.19c8.73-15.12,2.1-25.82-6.63-30.87s-21.32-5.44-30.06,9.68c-4.83,8.38-8.23,17.78-11.63,26.82l30.9,17.85C1770.22,549.21,1776.67,541.57,1781.51,533.19Z"/><path class="cls-16" d="M1764.09,556.67l-30.9-17.85c-1.59,4.21-3.17,8.34-4.91,12.25l27.64,16C1758.44,563.59,1761.23,560.15,1764.09,556.67Z"/><path class="cls-16" d="M1749.38,577.39l-26.8-15.48a111.3,111.3,0,0,1-7.47,10.78l28.67,16.56A111.55,111.55,0,0,1,1749.38,577.39Z"/><path class="cls-16" d="M1649.26,719.76l12.86,7.43s1.75-1,4.68-2.77l-30.33-17.52c-.09,3.43-.06,5.44-.06,5.44Z"/><path class="cls-10" d="M1498,448.54c-29.57-53.91-65.72-61.62-96.91-103.16l-45.47,24.94c18.27,48.63,5.34,83.26,34.91,137.17,19.3,35.18,63.55,66,81,77.21l48.1-26.39C1519.51,537.6,1517.3,483.72,1498,448.54Z"/><path class="cls-10" d="M1387.31,323.91a134.73,134.73,0,0,1-6.1-12.84l-43.84,24.05a134.44,134.44,0,0,1,7.55,12c.81,1.48,1.58,2.94,2.33,4.39l42.51-23.31C1388.94,326.82,1388.12,325.39,1387.31,323.91Z"/><path class="cls-10" d="M1356.66,249.3c-13.16-24-32.87-23.81-46.73-16.2s-24.61,24.13-11.46,48.11c7.29,13.29,17.13,25.48,26.46,37.37l49-26.88C1368.94,277.43,1364,262.58,1356.66,249.3Z"/><path class="cls-10" d="M1374,291.7l-49,26.88c4.36,5.55,8.61,11,12.44,16.54l43.84-24.05C1378.63,304.88,1376.29,298.35,1374,291.7Z"/><path class="cls-12" d="M1371.36,293.11l-43.84,24.05c4.25,5.61,8.4,11.15,12.16,16.69l39.22-21.51C1376.25,306.19,1373.81,299.71,1371.36,293.11Z"/><path class="cls-10" d="M1389.76,328.24l-42.51,23.31a176.85,176.85,0,0,1,8.37,18.77l45.47-24.94A177.52,177.52,0,0,1,1389.76,328.24Z"/><path class="cls-12" d="M1386.3,330.14l-35.58,19.51c3.38,6.5,6.21,12.69,8.6,18.64l38.07-20.88C1393.66,342.19,1390,336.48,1386.3,330.14Z"/><path class="cls-13" d="M1399.29,346.37a189.44,189.44,0,0,1-11.22-17.21q-1.23-2.12-2.45-4.33c-2.22-4-4.24-8.34-6.15-12.81-2.63-6.15-5-12.65-7.46-19.26-5.18-14.18-10.35-28.92-17.64-42.21-13.16-24-31.71-24.44-44.51-17.42l-.77.46c10.7-5.43,23.49-1.65,36.37,21.85,7.29,13.28,12.84,27.83,18.34,41.82,2.57,6.53,5.13,12.94,7.86,19.05,2,4.43,4,8.71,6.26,12.75q1.21,2.22,2.43,4.33c3.65,6.36,7.32,12.09,11,17.33,29.71,42.36,60.26,53.14,89.83,107,19.3,35.18,29.36,84.76,31.43,104.38l5.09-2.79c-.75-20.35-4.57-73.35-23.87-108.53C1464.26,396.92,1430,388.18,1399.29,346.37Z"/><path class="cls-13" d="M1358.73,368.61c-2.45-5.92-5.31-12.08-8.71-18.58-.76-1.44-1.53-2.9-2.34-4.38-2.22-4-4.72-8.08-7.39-12.13-3.68-5.59-7.7-11.2-11.82-16.87-8.83-12.18-18.11-24.68-25.39-38-10.17-18.54-8.17-31.43-1.85-39-7.91,8.46-11.28,22.11-1.11,40.64,7.28,13.28,16.92,25.59,26.08,37.58,4.27,5.6,8.44,11.13,12.21,16.66,2.74,4,5.28,8,7.5,12.07.81,1.48,1.58,2.94,2.33,4.39a192,192,0,0,1,8.49,18.7c18.82,48.33,8,81.83,37.52,135.74,19.29,35.18,61.78,67,78.47,78.58l2.2-1.21c-15.38-12.32-54.7-45.85-74-81C1371.35,447.88,1378.52,416.41,1358.73,368.61Z"/><path class="cls-14" d="M1415.17,494c-29.57-53.91-32.65-79.75-55.14-126.07-2.79-5.73-5.87-11.78-9.33-18.24-.78-1.44-1.56-2.89-2.37-4.37-2.22-4-4.6-8.14-7.08-12.3-3.42-5.72-7-11.55-10.75-17.46-7.92-12.67-16.18-25.73-23.47-39-9.54-17.4-11.06-26.78-9.35-31.65-4.06,8.1-4.18,19.62,4,34.57,7.29,13.29,16.73,25.69,25.71,37.78,4.19,5.64,8.28,11.22,12,16.77,2.7,4,5.22,8.07,7.43,12.11.82,1.48,1.59,2.94,2.34,4.39,3.39,6.49,6.22,12.68,8.61,18.63,19.34,48.05,10.45,80.46,40,134.37,19.3,35.18,60.09,67.9,76.08,79.89,4.15,3.11,6.63,4.83,6.63,4.83l1.08-.59s-1.79-2.1-4.84-5.81C1465,567.5,1434.47,529.16,1415.17,494Z"/><path class="cls-15" d="M1391.09,353c-3.69-5.18-7.35-10.86-11-17.16q-1.21-2.1-2.42-4.3c-2.2-4-4.24-8.26-6.18-12.67-2.68-6.08-5.17-12.47-7.68-19-5.36-13.95-10.75-28.45-18-41.63-13.06-23.81-29.89-25.13-41.15-18.95a24.89,24.89,0,0,0-8.93,8.18,6.43,6.43,0,0,1,1.53-1.2c4.69-2.57,13,.47,26.11,24.27,7.23,13.19,13.77,27.06,20.16,40.44,3,6.25,5.93,12.39,8.9,18.3q3.24,6.45,6.53,12.48c.8,1.47,1.6,2.9,2.39,4.32,3.55,6.34,7,12.15,10.28,17.55,26.73,43.55,46.55,60,75.9,113.52,19.15,34.92,35.1,80.85,40.86,98.29,1.5,4.53,2.31,7.14,2.31,7.14l1.74-1,16.57-9.09s-.14-3-.57-8.09c-1.65-19.7-7.62-71.11-26.78-106C1452.35,405,1420.88,394.87,1391.09,353Z"/><path class="cls-12" d="M1499.12,578l20.39-11.18s.12-3.14.09-8.52l-48.1,26.39c4.52,2.91,7.23,4.5,7.23,4.5Z"/><path class="cls-16" d="M1498,448.54c-29.57-53.91-65.72-61.62-96.91-103.16l-45.47,24.94c18.27,48.63,5.34,83.26,34.91,137.17,19.3,35.18,63.55,66,81,77.21l48.1-26.39C1519.51,537.6,1517.3,483.72,1498,448.54Z"/><path class="cls-16" d="M1387.31,323.91a134.73,134.73,0,0,1-6.1-12.84l-43.84,24.05a134.44,134.44,0,0,1,7.55,12c.81,1.48,1.58,2.94,2.33,4.39l42.51-23.31C1388.94,326.82,1388.12,325.39,1387.31,323.91Z"/><path class="cls-16" d="M1356.66,249.3c-13.16-24-32.87-23.81-46.73-16.2s-24.61,24.13-11.46,48.11c7.29,13.29,17.13,25.48,26.46,37.37l49-26.88C1368.94,277.43,1364,262.58,1356.66,249.3Z"/><path class="cls-16" d="M1374,291.7l-49,26.88c4.36,5.55,8.61,11,12.44,16.54l43.84-24.05C1378.63,304.88,1376.29,298.35,1374,291.7Z"/><path class="cls-16" d="M1389.76,328.24l-42.51,23.31a176.85,176.85,0,0,1,8.37,18.77l45.47-24.94A177.52,177.52,0,0,1,1389.76,328.24Z"/><path class="cls-16" d="M1499.12,578l20.39-11.18s.12-3.14.09-8.52l-48.1,26.39c4.52,2.91,7.23,4.5,7.23,4.5Z"/><path class="cls-10" d="M1716.89,782.12c57.79-21,70.91-55.57,116.73-80.06l-17.73-48.74c-50.84,10.65-83.1-7.41-140.88,13.6-37.71,13.71-74.92,52.75-88.65,68.25l18.75,51.57C1625.59,789.8,1679.18,795.83,1716.89,782.12Z"/><path class="cls-10" d="M1856.93,691.71a134.35,134.35,0,0,1,13.62-4.07l-17.08-47a133.78,133.78,0,0,1-13,5.63c-1.59.58-3.15,1.12-4.7,1.64l16.56,45.56C1853.81,692.88,1855.35,692.28,1856.93,691.71Z"/><path class="cls-10" d="M1935.35,672.79c25.7-9.35,28.53-28.86,23.13-43.72s-20.1-28-45.81-18.65c-14.24,5.17-27.79,13-41,20.46l19.11,52.54C1905.67,680.64,1921.11,678,1935.35,672.79Z"/><path class="cls-10" d="M1890.81,683.42l-19.11-52.54c-6.14,3.46-12.21,6.82-18.23,9.76l17.08,47C1877.06,686,1883.87,684.71,1890.81,683.42Z"/><path class="cls-12" d="M1889.8,680.65l-17.09-47c-6.19,3.34-12.3,6.6-18.34,9.47l15.28,42C1876.13,683.48,1882.91,682.06,1889.8,680.65Z"/><path class="cls-10" d="M1852.28,693.47l-16.56-45.56a175.28,175.28,0,0,1-19.83,5.41l17.73,48.74A176,176,0,0,1,1852.28,693.47Z"/><path class="cls-12" d="M1850.93,689.76l-13.86-38.14c-6.94,2.36-13.49,4.21-19.73,5.67l14.83,40.8C1837.9,695.2,1844.1,692.41,1850.93,689.76Z"/><path class="cls-13" d="M1832.91,700.13a190.32,190.32,0,0,1,18.72-8.47c1.52-.59,3.06-1.18,4.65-1.76,4.33-1.57,8.89-2.92,13.6-4.12,6.48-1.66,13.27-3.06,20.17-4.44,14.8-3,30.17-5.83,44.4-11,25.71-9.34,29-27.61,24-41.33-.1-.28-.23-.55-.34-.83,3.75,11.4-1.94,23.46-27.13,32.62-14.24,5.17-29.46,8.44-44.13,11.75-6.84,1.54-13.57,3.1-20,4.86-4.68,1.28-9.22,2.67-13.55,4.24q-2.38.87-4.66,1.75c-6.84,2.64-13.06,5.39-18.8,8.23-46.39,22.91-61.7,51.46-119.49,72.47-37.71,13.71-88.24,16.09-107.95,15.15l2,5.46c20.22,2.35,73.18,6.66,110.89-7.05C1773.05,756.64,1786.91,724.09,1832.91,700.13Z"/><path class="cls-13" d="M1817.11,656.66c6.22-1.52,12.75-3.42,19.69-5.79q2.31-.78,4.69-1.64c4.33-1.58,8.7-3.43,13.12-5.45,6.07-2.79,12.23-5.91,18.47-9.12,13.38-6.87,27.15-14.13,41.38-19.31,19.87-7.22,32.31-3.28,38.85,4.12-7.16-9.11-20.13-14.51-40-7.29-14.24,5.18-27.86,12.83-41.11,20.05-6.19,3.37-12.29,6.65-18.33,9.53-4.38,2.1-8.74,4-13.07,5.57-1.59.58-3.15,1.12-4.7,1.64a191.37,191.37,0,0,1-19.77,5.54c-50.64,11.23-82.09-4.62-139.88,16.39-37.71,13.71-75.6,50.86-89.61,65.59l.85,2.35c14.53-13.32,53.65-47.07,91.37-60.78C1736.84,657.05,1766.85,668.93,1817.11,656.66Z"/><path class="cls-14" d="M1684.61,693.33c57.79-21,83.8-20.12,133-35.28,6.1-1.88,12.54-4,19.45-6.45q2.31-.81,4.68-1.68c4.34-1.57,8.75-3.3,13.24-5.12,6.18-2.51,12.49-5.2,18.89-8,13.73-5.9,27.9-12.07,42.14-17.25,18.64-6.78,28.15-6.85,32.7-4.42-7.38-5.24-18.75-7.12-34.78-1.29-14.24,5.18-27.94,12.62-41.26,19.65-6.21,3.28-12.34,6.48-18.4,9.31-4.4,2.06-8.77,3.93-13.1,5.51-1.59.57-3.15,1.11-4.7,1.64-6.93,2.36-13.48,4.21-19.72,5.67-50.44,11.79-81.12-1.94-138.9,19.07-37.71,13.71-76.27,49-90.55,63-3.71,3.62-5.79,5.82-5.79,5.82l.42,1.15s2.35-1.45,6.48-3.9C1604.35,731.38,1646.9,707.05,1684.61,693.33Z"/><path class="cls-15" d="M1827.61,691c5.68-2.85,11.85-5.61,18.63-8.23,1.51-.59,3-1.17,4.62-1.74,4.3-1.57,8.81-2.93,13.46-4.18,6.42-1.72,13.11-3.21,19.92-4.69,14.61-3.18,29.76-6.3,43.89-11.44,25.51-9.27,29.39-25.7,25-37.78a24.86,24.86,0,0,0-6.73-10.06,5.91,5.91,0,0,1,.95,1.69c1.83,5-2.45,12.82-28,22.1-14.13,5.14-28.83,9.49-43,13.77-6.63,2-13.15,4-19.45,6-4.57,1.47-9,3-13.33,4.54l-4.63,1.71c-6.81,2.55-13.07,5-18.9,7.48-47.12,19.78-66.41,36.86-123.77,57.72-37.43,13.6-85.25,22.37-103.37,25.41-4.7.79-7.41,1.19-7.41,1.19l.68,1.86,6.46,17.76s3,.32,8.08.68c19.72,1.37,71.44,3.3,108.87-10.31C1766.93,743.65,1781.68,714.08,1827.61,691Z"/><path class="cls-12" d="M1588.76,763.49l7.94,21.86s3.09.6,8.41,1.39l-18.75-51.57c-3.56,4-5.55,6.47-5.55,6.47Z"/><path class="cls-16" d="M1716.89,782.12c57.79-21,70.91-55.57,116.73-80.06l-17.73-48.74c-50.84,10.65-83.1-7.41-140.88,13.6-37.71,13.71-74.92,52.75-88.65,68.25l18.75,51.57C1625.59,789.8,1679.18,795.83,1716.89,782.12Z"/><path class="cls-16" d="M1856.93,691.71a134.35,134.35,0,0,1,13.62-4.07l-17.08-47a133.78,133.78,0,0,1-13,5.63c-1.59.58-3.15,1.12-4.7,1.64l16.56,45.56C1853.81,692.88,1855.35,692.28,1856.93,691.71Z"/><path class="cls-16" d="M1935.35,672.79c25.7-9.35,28.53-28.86,23.13-43.72s-20.1-28-45.81-18.65c-14.24,5.17-27.79,13-41,20.46l19.11,52.54C1905.67,680.64,1921.11,678,1935.35,672.79Z"/><path class="cls-16" d="M1890.81,683.42l-19.11-52.54c-6.14,3.46-12.21,6.82-18.23,9.76l17.08,47C1877.06,686,1883.87,684.71,1890.81,683.42Z"/><path class="cls-16" d="M1852.28,693.47l-16.56-45.56a175.28,175.28,0,0,1-19.83,5.41l17.73,48.74A176,176,0,0,1,1852.28,693.47Z"/><path class="cls-16" d="M1588.76,763.49l7.94,21.86s3.09.6,8.41,1.39l-18.75-51.57c-3.56,4-5.55,6.47-5.55,6.47Z"/><path class="cls-10" d="M1649.14,618.75c62.47-61.13,59.16-113.58,104.09-172.19l-51.57-52.69c-59.57,43.65-111.93,39.22-174.4,100.36-40.76,39.9-66,112.28-74.66,140.41l54.55,55.75C1535.47,682.33,1608.38,658.65,1649.14,618.75Z"/><path class="cls-10" d="M1777.33,419.46a193.18,193.18,0,0,1,15.24-13.26l-49.72-50.8a189.32,189.32,0,0,1-13.59,15c-1.71,1.68-3.42,3.29-5.12,4.88l48.21,49.25C1774,422.81,1775.62,421.14,1777.33,419.46Z"/><path class="cls-10" d="M1867.72,348.92c27.79-27.2,20-54.12,4.27-70.18s-42.47-24.44-70.25,2.76c-15.4,15.06-28.31,33.2-41,50.54l55.59,56.8C1833.92,376.51,1852.33,364,1867.72,348.92Z"/><path class="cls-10" d="M1816.31,388.84,1760.72,332c-5.92,8.09-11.81,16-17.87,23.36l49.72,50.8C1800.05,400.3,1808.09,394.59,1816.31,388.84Z"/><path class="cls-12" d="M1813.38,385.84,1763.65,335c-6,8-12,15.77-18.18,23L1790,403.52C1797.35,397.54,1805.28,391.72,1813.38,385.84Z"/><path class="cls-10" d="M1772.35,424.48l-48.21-49.25a250.4,250.4,0,0,1-22.48,18.64l51.57,52.69A247.73,247.73,0,0,1,1772.35,424.48Z"/><path class="cls-12" d="M1768.42,420.47l-40.35-41.23c-7.6,7.12-15,13.37-22.21,18.92L1749,442.27C1754.73,435.16,1761.13,427.91,1768.42,420.47Z"/><path class="cls-13" d="M1751.18,444.47a270.91,270.91,0,0,1,19.25-22c1.62-1.66,3.27-3.33,5-5,4.68-4.58,9.79-9,15.18-13.32,7.42-6,15.38-11.76,23.51-17.6,17.42-12.52,35.63-25.26,51-40.32,27.79-27.2,21.3-52.77,6.79-67.61-.3-.3-.62-.57-.93-.87,11.55,12.56,11.26,31.51-16,58.16-15.39,15.06-33.18,28.23-50.23,41.13-8,6-15.75,12-23.06,18.05-5.32,4.41-10.37,8.87-15.06,13.45-1.71,1.68-3.37,3.35-5,5-7.3,7.43-13.74,14.65-19.5,21.69-46.6,56.9-49.65,102.85-112.12,164-40.76,39.9-104.77,72.67-130.84,83l5.77,5.9c27.57-8.83,98.65-34.36,139.42-74.26C1706.87,552.78,1705.7,502.51,1751.18,444.47Z"/><path class="cls-13" d="M1705.19,397.48c7.16-5.62,14.51-11.91,22.09-19.05,1.69-1.59,3.39-3.21,5.11-4.89,4.68-4.58,9.25-9.54,13.78-14.75,6.23-7.18,12.36-14.84,18.56-22.66,13.28-16.75,26.84-34.23,42.23-49.3,21.48-21,39.89-23.22,52.71-17.48-14.62-7.58-34.59-7-56.07,14-15.39,15.07-28.54,33-41.45,50.1-6,8-12,15.82-18.11,23.11-4.45,5.29-9,10.3-13.66,14.88-1.72,1.68-3.42,3.3-5.12,4.88a271,271,0,0,1-22.34,18.79c-59,44.28-109,42.23-171.45,103.37-40.76,39.9-68,110.24-77.49,137.53l2.5,2.55c11-25.78,41.8-92.45,82.56-132.35C1601.51,445.13,1647.34,442.89,1705.19,397.48Z"/><path class="cls-14" d="M1555.21,522.78c62.46-61.14,96.66-75.27,151.45-123.8,6.78-6,13.88-12.55,21.39-19.76,1.67-1.61,3.36-3.24,5.07-4.92,4.69-4.59,9.39-9.41,14.13-14.41,6.53-6.87,13.11-14.07,19.79-21.4,14.3-15.7,29-32,44.4-47.08,20.16-19.72,32.42-25.4,39.74-24.93-12.64-2.45-28.45,1.8-45.78,18.76-15.39,15.06-28.76,32.74-41.87,49.67-6.11,7.9-12.17,15.64-18.35,22.87-4.49,5.24-9,10.23-13.73,14.81-1.71,1.68-3.41,3.3-5.11,4.89-7.59,7.12-15,13.36-22.21,18.92-58.36,44.88-106.14,45.13-168.6,106.27-40.77,39.9-69.93,108.27-80.21,134.76-2.67,6.87-4.07,10.93-4.07,10.93l1.22,1.25s2.19-3.26,6.1-8.86C1473.65,619.17,1514.44,562.68,1555.21,522.78Z"/><path class="cls-15" d="M1739,435.79c5.68-7,12-14.22,19.28-21.6,1.61-1.65,3.25-3.3,5-5,4.65-4.55,9.68-9,15-13.31,7.29-6,15.08-11.86,23-17.78,17-12.69,34.81-25.62,50.09-40.58,27.58-27,23-50.54,10.17-63.59a35.34,35.34,0,0,0-14.62-9.07,8.33,8.33,0,0,1,2.23,1.63c5.31,5.43,4.35,18-23.23,45-15.27,15-31.75,29.22-47.62,43.1-7.41,6.48-14.68,12.87-21.64,19.2-5,4.6-9.94,9.17-14.59,13.72q-2.55,2.49-5,4.93c-7.32,7.29-14,14.19-20.08,20.79-49.38,53.28-64.32,86.71-126.32,147.39-40.46,39.6-97.22,79-118.89,93.61-5.63,3.78-8.89,5.9-8.89,5.9l2,2,18.79,19.2s4-1.33,10.86-3.88c26.34-9.8,94.42-37.68,134.88-77.28C1691.32,539.56,1693.05,492.62,1739,435.79Z"/><path class="cls-12" d="M1472.33,669.9l23.12,23.62s4.36-1,11.7-3.13l-54.55-55.75c-2.25,7.3-3.39,11.63-3.39,11.63Z"/><path class="cls-16" d="M1649.14,618.75c62.47-61.13,59.16-113.58,104.09-172.19l-51.57-52.69c-59.57,43.65-111.93,39.22-174.4,100.36-40.76,39.9-66,112.28-74.66,140.41l54.55,55.75C1535.47,682.33,1608.38,658.65,1649.14,618.75Z"/><path class="cls-16" d="M1777.33,419.46a193.18,193.18,0,0,1,15.24-13.26l-49.72-50.8a189.32,189.32,0,0,1-13.59,15c-1.71,1.68-3.42,3.29-5.12,4.88l48.21,49.25C1774,422.81,1775.62,421.14,1777.33,419.46Z"/><path class="cls-16" d="M1867.72,348.92c27.79-27.2,20-54.12,4.27-70.18s-42.47-24.44-70.25,2.76c-15.4,15.06-28.31,33.2-41,50.54l55.59,56.8C1833.92,376.51,1852.33,364,1867.72,348.92Z"/><path class="cls-16" d="M1816.31,388.84,1760.72,332c-5.92,8.09-11.81,16-17.87,23.36l49.72,50.8C1800.05,400.3,1808.09,394.59,1816.31,388.84Z"/><path class="cls-16" d="M1772.35,424.48l-48.21-49.25a250.4,250.4,0,0,1-22.48,18.64l51.57,52.69A247.73,247.73,0,0,1,1772.35,424.48Z"/><path class="cls-16" d="M1472.33,669.9l23.12,23.62s4.36-1,11.7-3.13l-54.55-55.75c-2.25,7.3-3.39,11.63-3.39,11.63Z"/><path class="cls-10" d="M1242.15,679.58c-46.45-76.35-99.44-85.18-147.43-143.48l-64.4,39.18C1060,644.7,1043.5,695.82,1090,772.17c30.31,49.83,96.56,91.7,122.58,106.84l68.13-41.45C1279.18,807.5,1272.46,729.41,1242.15,679.58Z"/><path class="cls-10" d="M1073.31,505.83a196.35,196.35,0,0,1-9.69-18.25l-62.09,37.78a195.28,195.28,0,0,1,11.75,17c1.28,2.09,2.49,4.17,3.67,6.23l60.2-36.63C1075.87,510,1074.58,507.93,1073.31,505.83Z"/><path class="cls-10" d="M1024,399.49c-20.66-34-49.28-32.42-68.91-20.48s-34.16,36.65-13.5,70.61c11.45,18.82,26.53,35.88,40.86,52.54l69.42-42.23C1043.61,439.54,1035.39,418.31,1024,399.49Z"/><path class="cls-10" d="M1051.82,459.93,982.4,502.16c6.69,7.77,13.21,15.46,19.13,23.2l62.09-37.78C1059.47,478.77,1055.65,469.44,1051.82,459.93Z"/><path class="cls-12" d="M1048.16,462.16l-62.1,37.77c6.54,7.87,12.92,15.64,18.74,23.44l55.55-33.79C1056.11,480.82,1052.14,471.58,1048.16,462.16Z"/><path class="cls-10" d="M1077.15,512,1017,548.58a255.73,255.73,0,0,1,13.37,26.7l64.4-39.18A254.7,254.7,0,0,1,1077.15,512Z"/><path class="cls-12" d="M1072.25,514.94l-50.4,30.65c5.34,9.22,9.85,18,13.72,26.5l53.9-32.79C1083.72,532,1078,523.92,1072.25,514.94Z"/><path class="cls-13" d="M1092.17,537.66a274.75,274.75,0,0,1-17.41-24.25c-1.28-2-2.56-4-3.84-6.13-3.48-5.72-6.7-11.83-9.76-18.2-4.22-8.77-8.15-18-12.09-27.48-8.44-20.25-16.92-41.32-28.36-60.14-20.66-34-47.63-33.42-65.76-22.39-.37.22-.72.49-1.08.72,15.17-8.59,34-3.93,54.22,29.35,11.45,18.81,20.45,39.57,29.35,59.53,4.16,9.32,8.3,18.46,12.65,27.15,3.16,6.31,6.44,12.38,9.92,18.1,1.27,2.1,2.55,4.13,3.82,6.14,5.71,9,11.41,17.06,17.09,24.44,45.9,59.56,91,73.23,137.4,149.58,30.31,49.82,48.15,121.15,52.43,149.51l7.21-4.39c-2.42-29.49-11.41-106.2-41.72-156C1189.79,606.83,1139.45,596.38,1092.17,537.66Z"/><path class="cls-13" d="M1034.73,572.6c-3.94-8.43-8.5-17.2-13.86-26.41-1.2-2.05-2.41-4.12-3.69-6.21-3.48-5.73-7.37-11.43-11.51-17.14-5.71-7.87-11.92-15.75-18.27-23.72-13.61-17.1-27.89-34.65-39.33-53.47-16-26.25-13.91-45.09-5.23-56.53-10.93,12.81-14.94,32.83,1,59.08,11.45,18.82,26.24,36.05,40.32,52.87,6.56,7.85,13,15.6,18.82,23.39,4.24,5.65,8.18,11.31,11.66,17,1.28,2.1,2.49,4.17,3.68,6.22a279,279,0,0,1,13.54,26.6c30.47,68.95,16.87,118.31,63.31,194.65,30.31,49.83,94.07,93.22,119.06,109l3.12-1.89c-23.14-16.89-82.41-63-112.72-112.84C1058.21,686.87,1066.58,640.71,1034.73,572.6Z"/><path class="cls-14" d="M1124.84,750.94c-46.44-76.34-52.61-113.67-88.27-179.46-4.42-8.14-9.29-16.73-14.74-25.87-1.22-2-2.45-4.1-3.73-6.2-3.48-5.72-7.2-11.52-11.08-17.39-5.34-8.09-11-16.32-16.74-24.66-12.33-17.88-25.17-36.3-36.62-55.11-15-24.64-17.8-38.17-15.64-45.34-5.36,12-4.79,28.75,8.1,49.93,11.44,18.81,26,36.21,39.79,53.18,6.45,7.92,12.75,15.74,18.52,23.57,4.19,5.68,8.1,11.37,11.59,17.09,1.27,2.1,2.49,4.17,3.68,6.22,5.34,9.22,9.85,18,13.71,26.5,31.21,68.5,20.41,116.15,66.85,192.5,30.31,49.82,91.67,94.67,115.67,111,6.23,4.25,9.94,6.58,9.94,6.58l1.53-.93s-2.73-2.93-7.41-8.12C1202,854.46,1155.15,800.77,1124.84,750.94Z"/><path class="cls-15" d="M1080.7,547.83c-5.7-7.29-11.38-15.29-17.06-24.2-1.27-2-2.54-4-3.8-6.09-3.46-5.68-6.69-11.72-9.8-18-4.28-8.65-8.32-17.76-12.38-27.05-8.7-19.9-17.47-40.6-28.83-59.27-20.5-33.71-45-34.54-61-24.83a36.21,36.21,0,0,0-12.42,12.46,8.65,8.65,0,0,1,2.14-1.84c6.64-4,19-.17,39.48,33.54,11.36,18.68,21.76,38.39,31.91,57.4,4.74,8.87,9.42,17.6,14.12,26,3.41,6.1,6.83,12,10.29,17.7,1.26,2.08,2.51,4.11,3.76,6.11,5.57,9,10.9,17.2,16.06,24.81,41.64,61.5,71.49,84.11,117.59,159.89,30.08,49.45,56.24,115.1,65.74,140.06,2.46,6.47,3.81,10.21,3.81,10.21l2.46-1.49L1266.26,859s-.39-4.32-1.35-11.71c-3.68-28.5-15.7-102.75-45.78-152.2C1173,619.26,1126.68,606.68,1080.7,547.83Z"/><path class="cls-12" d="M1252.2,867.5l28.88-17.56s0-4.58-.42-12.38L1212.53,879c6.75,3.93,10.8,6.06,10.8,6.06Z"/><path class="cls-16" d="M1242.15,679.58c-46.45-76.35-99.44-85.18-147.43-143.48l-64.4,39.18C1060,644.7,1043.5,695.82,1090,772.17c30.31,49.83,96.56,91.7,122.58,106.84l68.13-41.45C1279.18,807.5,1272.46,729.41,1242.15,679.58Z"/><path class="cls-16" d="M1073.31,505.83a196.35,196.35,0,0,1-9.69-18.25l-62.09,37.78a195.28,195.28,0,0,1,11.75,17c1.28,2.09,2.49,4.17,3.67,6.23l60.2-36.63C1075.87,510,1074.58,507.93,1073.31,505.83Z"/><path class="cls-16" d="M1024,399.49c-20.66-34-49.28-32.42-68.91-20.48s-34.16,36.65-13.5,70.61c11.45,18.82,26.53,35.88,40.86,52.54l69.42-42.23C1043.61,439.54,1035.39,418.31,1024,399.49Z"/><path class="cls-16" d="M1051.82,459.93,982.4,502.16c6.69,7.77,13.21,15.46,19.13,23.2l62.09-37.78C1059.47,478.77,1055.65,469.44,1051.82,459.93Z"/><path class="cls-16" d="M1077.15,512,1017,548.58a255.73,255.73,0,0,1,13.37,26.7l64.4-39.18A254.7,254.7,0,0,1,1077.15,512Z"/><path class="cls-16" d="M1252.2,867.5l28.88-17.56s0-4.58-.42-12.38L1212.53,879c6.75,3.93,10.8,6.06,10.8,6.06Z"/><circle class="cls-10" cx="1442.96" cy="718.82" r="226.11"/><circle class="cls-17" cx="1438.11" cy="713.97" r="219.41"/><circle class="cls-18" cx="1429.95" cy="705.81" r="198.96"/><circle class="cls-19" cx="1416.87" cy="692.73" r="161.2" transform="translate(-74.84 1204.78) rotate(-45)"/><circle class="cls-10" cx="1351.62" cy="643.61" r="31.51" transform="translate(-59.22 1144.25) rotate(-45)"/><ellipse class="cls-20" cx="1575.35" cy="594.02" rx="19.42" ry="24.4" transform="translate(4.02 1198.6) rotate(-41.7)"/><ellipse class="cls-20" cx="1515.47" cy="600.69" rx="19.42" ry="24.4" transform="translate(-15.59 1160.46) rotate(-41.7)"/><ellipse class="cls-20" cx="1561.86" cy="652.74" rx="19.42" ry="24.4" transform="translate(-38.47 1204.5) rotate(-41.7)"/><circle class="cls-16" cx="1442.96" cy="718.82" r="226.11"/></g></g></g></svg>