<svg id="Camada_1" data-name="Camada 1" xmlns="http://www.w3.org/2000/svg" viewBox="0 0 214.9 148.11"><defs><style>.cls-1{fill:#fff;}</style></defs><path d="M214.9,67.55c0,21.37-14.84,41.34-63.59,50.17-17.83,10.39-2.12,30.39-2.12,30.39s-29,0-33.92-26.5c-55,0-99.63-24.2-99.63-54.06s44.6-54,99.63-54S214.9,37.7,214.9,67.55Z"/><path class="cls-1" d="M200.59,55.36c0,21.37-14.84,41.34-63.59,50.17-17.83,10.39-2.12,30.39-2.12,30.39s-29,0-33.92-26.5c-55,0-99.63-24.2-99.63-54.06s44.61-54,99.63-54S200.59,25.51,200.59,55.36Z"/><path d="M202.09,55.4a46,46,0,0,1-.35,5.67,40.06,40.06,0,0,1-1.12,5.63,37.63,37.63,0,0,1-1.94,5.42A39.22,39.22,0,0,1,196,77.19a43,43,0,0,1-3.42,4.61l-.94,1.08-1,1c-.65.7-1.36,1.34-2.05,2-1.39,1.29-2.87,2.48-4.38,3.63l-2.32,1.64-2.38,1.53-2.44,1.43c-.82.46-1.66.89-2.49,1.33-1.68.85-3.36,1.68-5.09,2.42-.85.38-1.71.75-2.59,1.09s-1.73.72-2.61,1l-2.63,1-2.66.88c-1.77.59-3.56,1.11-5.35,1.64s-3.6,1-5.41,1.42-3.62.86-5.44,1.26-3.64.73-5.47,1.1l.58-.22h0a16.17,16.17,0,0,0-5.73,5.33,12.75,12.75,0,0,0-1.82,7.36,22.89,22.89,0,0,0,1.92,7.83,33,33,0,0,0,1.87,3.71c.34.61.71,1.2,1.09,1.78s.79,1.18,1.16,1.66l0,0a1.91,1.91,0,0,1-.35,2.67,1.87,1.87,0,0,1-1.18.4c-1.13,0-2.09-.1-3.12-.2s-2-.25-3-.42-2-.37-3-.62-2-.49-2.94-.8-1.94-.63-2.89-1-1.89-.78-2.82-1.22-1.83-.94-2.72-1.45-1.76-1.08-2.6-1.69c-.43-.29-.84-.61-1.24-.93s-.82-.64-1.2-1-.78-.69-1.16-1l-1.1-1.12c-.37-.36-.69-.78-1-1.17a14.63,14.63,0,0,1-1-1.22c-.64-.82-1.21-1.69-1.77-2.57s-1.05-1.81-1.5-2.74-.87-1.89-1.21-2.87-.66-2-1-3-.47-2-.71-3l2,1.7h0a185.38,185.38,0,0,1-23.31-1.71A168.31,168.31,0,0,1,54.78,105,125.23,125.23,0,0,1,33,96.55a81.27,81.27,0,0,1-19.4-13.23A51.7,51.7,0,0,1,5.9,74.24,36.62,36.62,0,0,1,1,63.33a31.61,31.61,0,0,1-.75-12A33.72,33.72,0,0,1,3.93,40c3.74-7.1,9.46-12.83,15.74-17.5A95,95,0,0,1,40.14,11.12,153.51,153.51,0,0,1,85.45.64,190.3,190.3,0,0,1,108.73.15a176.59,176.59,0,0,1,23.16,2.44A149.84,149.84,0,0,1,154.51,8.3,111.23,111.23,0,0,1,175.79,18a66.57,66.57,0,0,1,18,15.21,40.86,40.86,0,0,1,6,10.32,32.3,32.3,0,0,1,2.3,11.83Zm-3,0A29.42,29.42,0,0,0,197,44.61,37.86,37.86,0,0,0,191.45,35a63.61,63.61,0,0,0-17.13-14.57,107.56,107.56,0,0,0-20.71-9.51,145.89,145.89,0,0,0-22.19-5.68,174.45,174.45,0,0,0-22.8-2.47,181.22,181.22,0,0,0-23,.47,151,151,0,0,0-44.52,10.3,92.65,92.65,0,0,0-19.9,11c-6.06,4.5-11.49,10-15,16.6A31.21,31.21,0,0,0,2.9,51.69a28.74,28.74,0,0,0,.73,11c1.89,7.17,6.43,13.46,11.89,18.58A77.89,77.89,0,0,0,34.3,93.85a122.74,122.74,0,0,0,21.37,8,151.58,151.58,0,0,0,22.45,4.33A179.71,179.71,0,0,0,101,107.34h0a2.11,2.11,0,0,1,2,1.62l0,.08c.21.89.36,1.8.61,2.68s.49,1.77.83,2.61a24.24,24.24,0,0,0,1,2.52c.39.82.83,1.62,1.29,2.4a23.84,23.84,0,0,0,1.52,2.24,12.21,12.21,0,0,0,.84,1.06c.3.34.57.71.89,1l1,1,1,.92c.33.32.7.59,1,.88s.71.57,1.09.83c.73.54,1.5,1,2.28,1.51s1.6.91,2.43,1.31,1.67.78,2.53,1.12,1.74.66,2.62.94,1.79.53,2.69.76,1.82.41,2.74.58,1.84.31,2.76.41,1.89.18,2.71.19l-1.51,3.1c-.51-.68-.92-1.29-1.35-1.94s-.81-1.31-1.19-2a39.69,39.69,0,0,1-2-4.14,26.29,26.29,0,0,1-2.14-9.15,17.42,17.42,0,0,1,.49-4.86,15.61,15.61,0,0,1,1.94-4.54,19.83,19.83,0,0,1,7-6.49h0a1.44,1.44,0,0,1,.52-.2h.05c1.8-.35,3.6-.65,5.39-1s3.57-.75,5.34-1.18,3.54-.88,5.31-1.34,3.51-1,5.24-1.55l2.59-.85,2.57-.92c.86-.29,1.69-.66,2.53-1s1.69-.68,2.51-1c1.67-.71,3.3-1.5,4.92-2.31.8-.42,1.6-.83,2.39-1.26L177.81,90l2.28-1.44,2.2-1.55c1.43-1.08,2.83-2.19,4.14-3.4.65-.61,1.32-1.2,1.92-1.86l.93-1,.87-1a36.53,36.53,0,0,0,3.19-4.25,36.06,36.06,0,0,0,2.53-4.65,33.61,33.61,0,0,0,1.8-5,36.33,36.33,0,0,0,1.07-5.2,44.11,44.11,0,0,0,.35-5.35Z"/></svg>