<svg id="Camada_1" data-name="Camada 1" xmlns="http://www.w3.org/2000/svg" viewBox="0 0 120.08 150.56"><defs><style>.cls-1{fill:#fff;}</style></defs><path d="M10.11,45.79c-.88-1.93-2.53-2.72-3.78-3.93A41.41,41.41,0,0,1,1.9,37.51C-1,33.74-.55,31.31,3,28.52,8.72,24,14.36,19.25,20,14.58c4.81-4,9.58-8,14.39-11.93C35.64,1.65,36.93.76,38,0c1.86.43,2.43,1.63,3,2.73.93,1.67,1.74,3.41,2.63,5.1L91.17,98.69c.74,1.41,1.51,2.82,2.16,4.28a8.39,8.39,0,0,1,.25,2.19c-4.33-1.48-7.08-4.84-10.83-6.39-.23.42-.55.76-.48.93,2.16,5.34,5.28,10.16,8,15.69,3.64-4.57,7.39-8.07,13.28-8.06a16.92,16.92,0,0,1,11.47,4c6.3,5.39,6.75,12.81,1.17,21.2.32.88.75,1.89,1.06,2.93a11,11,0,0,1-6,13.61,17.32,17.32,0,0,1-2.69,1c-8.57,2.4-15.91-4.46-14.08-13.16.23-1.08.58-2.14.85-3.13-1.54-2.48-3.44-4.74-4.42-7.34s-1-5.58-1.61-9c-1-.71-2.5-1.85-4.06-2.93C66.17,101.33,47.09,88.19,28.74,74,21.78,68.66,15,63.09,8.12,57.6c-.75-.6-1.47-1.23-2.19-1.86-3.36-3-3.35-3.58.21-6.61C7.46,48,8.8,46.89,10.11,45.79ZM5.76,36.46c.76.76,1.46,1.6,2.29,2.28C32.55,59,58.57,77.26,84.9,95.06c.18.12.56-.06.84-.11.05-.13.18-.29.14-.4a13.3,13.3,0,0,0-.7-1.75Q63.06,50.59,40.93,8.41a.83.83,0,0,0-.35-.32A1.33,1.33,0,0,0,40.13,8C36.77,10.08,8.65,33.32,5.76,36.46ZM113.4,120.55a6.48,6.48,0,0,0-3-5.69c-3.45-2.29-8.19-1.58-11.36,1.69a8.55,8.55,0,0,0-1,11,6,6,0,0,0,2.54,2.08C105.29,131.29,113.55,128,113.4,120.55Z"/><path class="cls-1" d="M5.76,36.46C8.65,33.32,36.77,10.08,40.13,8a1.33,1.33,0,0,1,.45.08.83.83,0,0,1,.35.32Q63.06,50.59,85.18,92.8a13.3,13.3,0,0,1,.7,1.75c0,.11-.09.27-.14.4-.28,0-.66.23-.84.11C58.57,77.26,32.55,59,8.05,38.74,7.22,38.06,6.52,37.22,5.76,36.46Z"/><path class="cls-1" d="M113.4,120.55c.15,7.43-8.11,10.74-12.83,9A6,6,0,0,1,98,127.52a8.55,8.55,0,0,1,1-11c3.17-3.27,7.91-4,11.36-1.69A6.48,6.48,0,0,1,113.4,120.55Z"/></svg>