<svg id="Camada_1" data-name="Camada 1" xmlns="http://www.w3.org/2000/svg" viewBox="0 0 112.99 108.82"><defs><style>.cls-1{fill:#fff;}</style></defs><path d="M113,51a29.89,29.89,0,0,1-7.37,6.81c-6.16,4-12.2,8.2-18.28,12.33-1.18.8-2.33,1.65-3.62,2.58,0,1.11,0,2.2,0,3.3.08,1.43.38,2.87.34,4.3-.24,7.72,1,15.27,2.61,22.78a21.14,21.14,0,0,1,.4,2.36c.19,2-1.12,3.61-3,3.39a9.39,9.39,0,0,1-3.92-1.52,13.56,13.56,0,0,1-2.59-2.79Q69.88,95.27,62.23,86c-.81-1-1.67-1.9-2.58-2.92a9.39,9.39,0,0,0-1.9.38c-9.85,4.18-19.7,8.35-29.52,12.6-3.37,1.45-6.71,3-9.95,4.72a8.21,8.21,0,0,1-6,.56c-.95-.23-1.74-1.17-2.83-2,6.16-13.06,12.2-25.87,18.37-38.93-1.4-1-2.64-2-3.92-2.91-6.66-4.7-13.34-9.37-20-14.09A30,30,0,0,1,.54,40.77a1.83,1.83,0,0,1,.82-3.06,14.88,14.88,0,0,1,2.82-.5c5.89-.53,11.78-1.07,17.67-1.53,5.57-.44,11.15-.91,16.74-1.14a5.8,5.8,0,0,0,5.31-3.28c5.55-9.53,11.28-18.94,16.86-28.45,1.2-2,2.65-3.09,5-2.74a3.27,3.27,0,0,1,3.18,3c.66,3.45,1.4,6.9,1.79,10.39.91,8.33,4,16.1,6,24.13.43,1.66,1.62,2.23,3.1,2.57,5.75,1.33,11.53,2.6,17.25,4.06,3.86,1,7.67,2.21,11.46,3.44C110.27,48.21,112,48.72,113,51ZM22.84,90c1.49-.9,3-1.78,4.46-2.73,7.64-5,15.24-10,22.9-14.91,4.76-3.05,6.2-2.8,9.8,1.34,1.57,1.81,3.09,3.67,4.63,5.51,3.37,4,6.73,8.12,10.13,12.15a19.45,19.45,0,0,0,2.35,1.89c-.33-2.21-.47-3.61-.75-5-1.3-6.58-2.66-13.15-4-19.73-.32-1.69-.91-3.42.14-5.42,1.85-.79,3.88-1.7,5.94-2.54Q89.14,56.29,99.82,52c.74-.29,1.54-.53,1.13-1.8-.65-.2-1.39-.47-2.15-.66-6-1.51-12.08-3-18.13-4.5-3.26-.78-6.55-1.41-9.83-2.13a3.61,3.61,0,0,1-3.11-3.19c-.07-.47-.21-.93-.29-1.41q-1.55-9.69-3.08-19.4a14.15,14.15,0,0,0-1.5-5.37c-.94,1.32-1.73,2.27-2.36,3.32-3.68,6.18-7.35,12.36-10.94,18.59-1,1.79-2.26,2.95-4.47,3-2.71.12-5.41.51-8.12.73-7.8.63-15.61,1.23-23.42,1.87-.56,0-1.3-.12-1.67,1,.83.7,1.7,1.56,2.69,2.25C20.72,48.7,26.9,53,33.05,57.28c1,.7,1.87,1.59,3,2.55C31.44,69.89,26.41,79.47,22.84,90Z"/><path class="cls-1" d="M22.84,90c3.57-10.57,8.6-20.15,13.2-30.21-1.12-1-2-1.85-3-2.55C26.9,53,20.72,48.7,14.57,44.38c-1-.69-1.86-1.55-2.69-2.25.37-1.15,1.11-1,1.67-1,7.81-.64,15.62-1.24,23.42-1.87,2.71-.22,5.41-.61,8.12-.73,2.21-.09,3.43-1.25,4.47-3,3.59-6.23,7.26-12.41,10.94-18.59.63-1.05,1.42-2,2.36-3.32a14.15,14.15,0,0,1,1.5,5.37q1.53,9.7,3.08,19.4c.08.48.22.94.29,1.41a3.61,3.61,0,0,0,3.11,3.19c3.28.72,6.57,1.35,9.83,2.13,6,1.46,12.09,3,18.13,4.5.76.19,1.5.46,2.15.66.41,1.27-.39,1.51-1.13,1.8q-10.66,4.29-21.33,8.6c-2.06.84-4.09,1.75-5.94,2.54-1,2-.46,3.73-.14,5.42,1.29,6.58,2.65,13.15,4,19.73.28,1.38.42,2.78.75,5a19.45,19.45,0,0,1-2.35-1.89c-3.4-4-6.76-8.1-10.13-12.15-1.54-1.84-3.06-3.7-4.63-5.51-3.6-4.14-5-4.39-9.8-1.34-7.66,4.92-15.26,9.95-22.9,14.91C25.84,88.26,24.33,89.14,22.84,90Z"/></svg>