<svg id="Camada_1" data-name="Camada 1" xmlns="http://www.w3.org/2000/svg" viewBox="0 0 309.48 230.14"><defs><style>.cls-1{fill:#fff;}</style></defs><path d="M292.34,84.78a29.64,29.64,0,0,0,2.15-11c0-18.64-17.46-33.75-39-33.75a43.23,43.23,0,0,0-21.37,5.52c-2.7-15.81-20.3-28-41.63-28-14.09,0-26.55,5.33-34.16,13.51A28.68,28.68,0,0,0,137,22c-14.05,0-25.6,9.25-26.87,21.07A35.76,35.76,0,0,0,99.5,41.5C85.41,41.5,74,49.22,74,58.75a11.36,11.36,0,0,0,.13,1.75A34.64,34.64,0,0,0,58,56.5C37.29,56.5,20.5,75,20.5,97.75c0,16,8.31,29.9,20.45,36.73a30.1,30.1,0,0,0-4.45,15.76c0,17,14.1,30.75,31.5,30.75a32,32,0,0,0,13.19-2.82,22.49,22.49,0,0,0,33.39,7.25C120.9,198.65,136.27,208,154.24,208a48.32,48.32,0,0,0,23.86-6.14c7,11.42,21.54,24.94,51.65,28.29,0,0-23.07-18.84-11.85-42.8,8-2.76,14.14-10.33,16-19.83a19,19,0,0,0,7.34,1.48c9.65,0,17.72-7.25,19.75-17a36,36,0,0,0,11.75,2c20.29,0,36.74-16.78,36.74-37.49A37.65,37.65,0,0,0,292.34,84.78Z"/><path class="cls-1" d="M273.34,68.78a29.64,29.64,0,0,0,2.15-11c0-18.64-17.46-33.75-39-33.75a43.23,43.23,0,0,0-21.37,5.52c-2.7-15.81-20.3-28-41.63-28C159.4,1.5,146.94,6.83,139.33,15A28.68,28.68,0,0,0,118,6c-14,0-25.6,9.25-26.87,21.07A35.76,35.76,0,0,0,80.5,25.5C66.41,25.5,55,33.22,55,42.75a11.36,11.36,0,0,0,.13,1.75A34.64,34.64,0,0,0,39,40.5C18.29,40.5,1.5,59,1.5,81.75c0,16,8.31,29.9,20.45,36.73a30.1,30.1,0,0,0-4.45,15.76c0,17,14.1,30.75,31.5,30.75a32,32,0,0,0,13.19-2.82,22.49,22.49,0,0,0,33.39,7.25C101.9,182.65,117.27,192,135.24,192a48.32,48.32,0,0,0,23.86-6.14c7,11.42,21.54,24.94,51.65,28.29,0,0-23.07-18.84-11.85-42.8,8-2.76,14.14-10.33,16-19.83a19,19,0,0,0,7.34,1.48c9.65,0,17.72-7.25,19.75-17a36,36,0,0,0,11.75,2c20.29,0,36.74-16.78,36.74-37.49A37.65,37.65,0,0,0,273.34,68.78Z"/><path d="M210.75,215.64h-.17c-29.94-3.33-44.75-16.68-52-27.78a50.17,50.17,0,0,1-23.35,5.64c-17.43,0-33-8.52-40.21-21.85a23.69,23.69,0,0,1-13,3.85,24,24,0,0,1-20.45-11.42A33.33,33.33,0,0,1,49,166.49c-18.2,0-33-14.46-33-32.25A31.63,31.63,0,0,1,19.91,119C7.59,111.44,0,97.3,0,81.75,0,58.17,17.49,39,39,39a35.71,35.71,0,0,1,14.51,3.06C54,32,65.94,24,80.5,24a37.86,37.86,0,0,1,9.39,1.16c2.25-11.9,14-20.66,28.1-20.66a30.31,30.31,0,0,1,21.34,8.35C147.55,4.78,160.18,0,173.49,0c20.84,0,38.75,11.58,42.68,27.25a45.13,45.13,0,0,1,20.32-4.75c22.33,0,40.5,15.81,40.5,35.25a31.23,31.23,0,0,1-1.82,10.45A39,39,0,0,1,292,100.5c0,21.5-17.15,39-38.24,39a37.49,37.49,0,0,1-10.68-1.55c-2.73,9.68-11.25,16.55-20.82,16.55a20.36,20.36,0,0,1-6.25-1c-2.27,8.94-8.26,16.09-16,19-10,22.33,10.8,39.7,11.69,40.43a1.5,1.5,0,0,1-.94,2.67ZM159.1,184.35a1.5,1.5,0,0,1,1.28.72c6.25,10.19,19.26,22.87,46,27a50.66,50.66,0,0,1-7.1-9.59c-6-10.52-6.57-21.5-1.77-31.75a1.46,1.46,0,0,1,.87-.78c7.51-2.61,13.27-9.78,15-18.71a1.52,1.52,0,0,1,.76-1,1.53,1.53,0,0,1,1.29-.06,17.51,17.51,0,0,0,6.76,1.36c8.68,0,16.37-6.63,18.28-15.77a1.49,1.49,0,0,1,.73-1,1.51,1.51,0,0,1,1.23-.11,34.55,34.55,0,0,0,11.26,1.88c19.43,0,35.24-16.15,35.24-36A36.05,36.05,0,0,0,272.53,70a1.48,1.48,0,0,1-.58-1.81,28.16,28.16,0,0,0,2-10.48C274,40,257.16,25.5,236.49,25.5a41.73,41.73,0,0,0-20.63,5.33,1.5,1.5,0,0,1-1.38.05,1.48,1.48,0,0,1-.84-1.11C211,14.51,193.77,3,173.49,3,160.39,3,148,7.87,140.42,16a1.45,1.45,0,0,1-1.11.48,1.53,1.53,0,0,1-1.1-.5A27.08,27.08,0,0,0,118,7.5C104.74,7.5,93.82,16,92.61,27.23a1.51,1.51,0,0,1-1.94,1.27A34.14,34.14,0,0,0,80.5,27c-13.24,0-24,7.06-24,15.75a11.25,11.25,0,0,0,.11,1.53A1.49,1.49,0,0,1,56,45.72a1.51,1.51,0,0,1-1.57.11A32.92,32.92,0,0,0,39,42C19.15,42,3,59.83,3,81.75c0,15,7.54,28.59,19.69,35.42a1.52,1.52,0,0,1,.54,2.1,28.6,28.6,0,0,0-4.23,15c0,16.13,13.46,29.25,30,29.25a30.31,30.31,0,0,0,12.57-2.69,1.51,1.51,0,0,1,1.94.65,21,21,0,0,0,31.17,6.78,1.49,1.49,0,0,1,2.26.55c6.3,13.19,21.34,21.71,38.3,21.71a46.77,46.77,0,0,0,23.12-5.94A1.55,1.55,0,0,1,159.1,184.35Z"/></svg>