<svg id="Camada_1" data-name="Camada 1" xmlns="http://www.w3.org/2000/svg" viewBox="0 0 156.57 167.3"><defs><style>.cls-1{fill:#fff;}</style></defs><path d="M156.57,78.76c0-36-40.13-66.93-78.12-66.93S19,42.73,19,78.76c0,29.95,21.31,55.17,50.32,62.82,4.89,14.58-8.74,25.72-8.74,25.72,24.85-2.76,33.57-16.07,36.58-23.93C130.7,139,156.57,111.77,156.57,78.76Z"/><path class="cls-1" d="M139.1,68.43C139.1,32.41,99,1.5,61,1.5S1.5,32.41,1.5,68.43c0,29.95,21.3,55.17,50.32,62.83C56.71,145.84,43.08,157,43.08,157,67.93,154.22,76.65,140.9,79.65,133,113.22,128.71,139.1,101.44,139.1,68.43Z"/><path d="M43.08,158.48a1.5,1.5,0,0,1-1-2.66c.13-.11,12.3-10.29,8.51-23.33C20.78,124.25,0,98,0,68.43,0,28.14,25.07,0,61,0,97.8,0,140.6,29.89,140.6,68.43c0,32.93-25.68,61.15-59.88,66-3.38,8.16-12.64,21.3-37.48,24.06ZM61,3C43.46,3,28.65,9.71,18.14,22.41,8.38,34.22,3,50.56,3,68.43c0,28.49,20.23,53.73,49.2,61.38a1.49,1.49,0,0,1,1,1c3.59,10.72-2,19.55-5.93,24.08,20.76-3.66,28.28-15.39,30.94-22.36a1.52,1.52,0,0,1,1.21-.95c33.15-4.27,58.14-31.41,58.14-63.12,0-16.36-8.85-33.06-24.27-45.82C98.26,10.15,79.18,3,61,3Z"/></svg>