<svg id="Camada_1" data-name="Camada 1" xmlns="http://www.w3.org/2000/svg" viewBox="0 0 261 170"><defs><style>.cls-1{fill:#fff;}</style></defs><path d="M252.1,31.83l-224.2-16c-4.92,0-8.9,4.48-8.9,10v122c0,5.53,4,10,8.9,10l160.92-11.48c6.23,13.23-6.51,23.65-6.51,23.65,30-3.33,32-25,32-25l37.79-3.17c4.92,0,8.9-3.47,8.9-7.74V39.58C261,35.3,257,31.83,252.1,31.83Z"/><path class="cls-1" d="M235.1,17.5,10.9,1.5C6,1.5,2,6,2,11.5v122c0,5.52,4,10,8.9,10L171.82,132c6.23,13.23-6.51,23.65-6.51,23.65,30-3.34,32-25,32-25l37.79-3.17c4.92,0,8.9-3.47,8.9-7.75V25.25C244,21,240,17.5,235.1,17.5Z"/><path d="M164.81,157.17a1.49,1.49,0,0,1-1.38-.92,1.51,1.51,0,0,1,.43-1.75c.49-.4,11.17-9.38,6.51-20.91L10.5,145h-.1C4.66,145,0,139.84,0,133.5V11.5C0,5.16,4.66,0,10.4,0h.1L234.66,16c5.71,0,10.34,4.16,10.34,9.25v94.5c0,5.08-4.63,9.22-10.33,9.25l-36.58,3.06c-1,4.85-6.5,22.14-33.11,25.1Zm6.51-26.65a1.5,1.5,0,0,1,1.35.86c4.52,9.58-.21,17.82-3.76,22.17,24.31-4.54,26.33-22.23,26.41-23a1.5,1.5,0,0,1,1.37-1.35L234.48,126h.12c4.08,0,7.4-2.8,7.4-6.25V25.25c0-3.45-3.32-6.25-7.4-6.25h-.1L10.35,3C6.29,3,3,6.83,3,11.5v122c0,4.67,3.29,8.47,7.35,8.5l160.86-11.48Z"/></svg>