<svg id="Camada_1" data-name="Camada 1" xmlns="http://www.w3.org/2000/svg" viewBox="0 0 649.77 253.31"><defs><style>.cls-1{fill:#06212d;}.cls-2{fill:#041f2a;}.cls-3{fill:#08222f;}.cls-4{fill:#08222e;}.cls-5{fill:#0a2430;}.cls-6{fill:#fe3d4c;}.cls-7{fill:#fe3d4d;}.cls-8{fill:#dd1e30;}.cls-9{fill:#001721;}.cls-10{fill:#103242;}.cls-11{fill:#f6f8f9;}.cls-12{fill:#f4f7f9;}.cls-13{fill:#fefefe;}.cls-14{fill:#fe2438;}.cls-15{fill:#fe2335;}.cls-16{fill:#fe2638;}.cls-17{fill:#fe192f;}.cls-18{fill:#fe1e31;}.cls-19{fill:#fe9ba4;}.cls-20{fill:#fe3c4c;}.cls-21{fill:#fe2337;}</style></defs><path class="cls-1" d="M68.1,204.34c-1.58,1.48-3.08.47-4.59-.15Q33.39,191.74,3.25,179.31A4.53,4.53,0,0,1,0,174.48Q.17,89.34.11,4.19c0-3,.91-4.38,4-4.17,1,.07,2,0,3,0H557.41C564,0,564,0,564,6.42c0,5.64.2,11.3-.07,16.93-.15,3.12.81,3.8,3.86,3.78,25.44-.12,50.89-.07,76.34,0,1.71,0,3.66-.82,5.16.8-.84.76-1.88.55-2.85.55q-38.67,0-77.33,0c-.86,0-1.82.4-2.05.09.55,0,1.69,0,2.82,0h73.83c1.16,0,2.46-.36,3.45.17,2,1,.45,1.64-.47,2.23-2.43.79-4.94.59-7.43.59q-32.94,0-65.88,0c-7.42,0-7.6.16-7.6,7.45q0,64.76,0,129.5c0,9.86-.52,10.68-9.64,14.4-14.78,6-29.41,12.41-44.28,18.25a20,20,0,0,0-4,2,9.76,9.76,0,0,1-5.36.23c46.54-.52,93.08-.44,139.62-.43,2.43,0,5-.54,7.1,1.42-1.16,1.46-2.78.75-4.16.75q-72.27,0-144.55,0c-1.42,0-3,.54-4.23-.77-1.06-8.24.16-16.53-.63-24.78a2.92,2.92,0,0,0-1.29-1.31c-2.29-.61-4.63-.38-6.95-.38q-205.15,0-410.32,0a27.36,27.36,0,0,0-6.94.37,2.9,2.9,0,0,0-1.28,1.29c-.58,6.67-.09,13.35-.28,20C68.5,201.14,69,202.81,68.1,204.34Z"/><path class="cls-2" d="M645.84,30.09c.47-.2,1.67-.5.88-.9-1.07-.54-2.59-.18-3.92-.18q-36.36,0-72.72,0c-1.61,0-3.3.45-6-1h85.13c.43,3.39-1.62,6.08-2.72,9Q632,75.2,617.2,113.36a7.72,7.72,0,0,0,.26,6.09q15.75,40.71,31.27,81.51c.38,1,1.84,2.09.45,3.41H498.36c2.89-1.43,6.13-.51,8.94-2,3.06-1.68,6.42-1.44,9.72-1.44q59.34,0,118.68,0c1.16,0,2.33,0,3.49,0,4.38-.15,4.67-.51,3.08-4.69-5.73-15-11.54-30-17.26-45.08-3.77-9.93-7.61-19.83-11.42-29.74a13.92,13.92,0,0,1,0-10.57Q628,73.16,642.52,35.55A12.59,12.59,0,0,1,645.84,30.09Z"/><path class="cls-3" d="M320.43,227.91c0-7.12.09-14.25,0-21.38-.05-2.57.78-3.53,3.4-3.29,2.47.22,5,0,7.47,0,4.43,0,9.08.34,11.05,5,2.25,5.36,2.6,11.14-1.18,16.05-1.44,1.87-1.47,2.1.11,3.91,4.77,5.46,4,12.11,2,18.33-1.78,5.76-7,6.25-12.25,6.24-10.61,0-10.61,0-10.6-10.51Z"/><path class="cls-4" d="M307.77,224.81c0,6.14.22,12.29-.06,18.42-.29,6.56-4.35,10-11.12,10.08s-11.23-3.29-11.43-9.72c-.4-12.6-.18-25.22-.31-37.83,0-3.52,2.47-2.23,4.19-2.47,2.43-.34,3.59.41,3.56,3.2-.13,11.28-.05,22.57-.07,33.85,0,2.87-.4,5.94,3.91,6,4.49.06,4.4-3.12,4.4-6.2,0-10.95.07-21.9-.07-32.86,0-2.77.29-4.1,3.66-4.14,3.61,0,3.55,1.71,3.51,4.25-.1,5.81,0,11.61,0,17.42Z"/><path class="cls-3" d="M219,227.9c0-5-.24-10,.07-14.91.27-4.36,2.18-8.08,6.72-9.49s9.25-1.2,13,2.37,3.47,8.11,3.09,12.57c-.22,2.49-2.63,1.26-4.08,1.44s-3.1.17-3-2.15a25.64,25.64,0,0,0-.07-4.47,3.85,3.85,0,0,0-4-3.61c-2.12,0-4,1.11-4.05,3.53q-.18,14.91-.07,29.83c0,2.07,1.35,3.2,3.57,3.35s4-.69,4.48-2.94a16.35,16.35,0,0,0,.21-4.94c-.23-2.76.25-4.16,3.64-4.2,3.62,0,3.5,1.76,3.51,4.3.07,10.71-3.36,14.94-12.15,14.71-6.5-.16-10.4-3.89-10.81-10.47-.15-2.48-.07-5-.08-7.45s0-5,0-7.47Z"/><path class="cls-5" d="M261.27,225c0,5.81.19,11.63-.08,17.43-.13,2.87.64,3.9,3.52,3.57,1.8-.21,3.66.06,5.48-.06,2.62-.18,4.26,0,4.24,3.54,0,3.76-2.08,3.41-4.46,3.38-4.33,0-8.66-.15-13,0-2.71.12-3.3-.91-3.28-3.44.11-14.28.16-28.56,0-42.83,0-3.14,1.23-3.45,3.79-3.4s4.07.07,3.94,3.33c-.25,6.14-.07,12.29-.07,18.43Z"/><path class="cls-6" d="M282.21,3q136.47,0,272.93-.11c4.75,0,6.06,1.06,6,5.93q-.3,80.67,0,161.33c0,4.4-1.07,5.47-5.47,5.47q-273.42-.18-546.85,0c-4.49,0-5.74-1-5.73-5.66q.27-80.65,0-161.32c0-4.48,1-5.75,5.66-5.74Q145.49,3.09,282.21,3Z"/><path class="cls-7" d="M645.84,30.09C637.17,53,629.22,76.14,619.53,98.58c-5.3,12.28-5.39,22.76,0,35.05,9.67,22.25,17.64,45.24,26.63,68.74H507.3c.34-2,2.15-1.77,3.44-2.31,16.23-6.74,32.42-13.56,48.73-20.1,3.51-1.41,4.53-3.3,4.52-7-.14-46,0-91.92-.19-137.88,0-4.17,1.08-5.22,5.23-5.19C594.63,30.12,620.24,30.06,645.84,30.09Z"/><path class="cls-8" d="M65.18,201.58,11.92,179.5l.19-1H39.64c7.31,0,14.63,0,21.94,0,1.89,0,3.68-.18,3.64,2.66C65.11,187.74,65.18,194.32,65.18,201.58Z"/><path class="cls-8" d="M552.46,179.35c-2.18.94-4.36,1.91-6.55,2.82-14.22,5.91-28.49,11.71-42.65,17.77-3.4,1.46-4.23.84-4.06-2.74.23-5.11.12-10.25,0-15.38,0-2.17.39-3.35,3-3.34,16.67.08,33.34,0,50,0Z"/><path class="cls-9" d="M68.08,177.44c1.48-1.63,3.43-1,5.18-1q208.94,0,417.89,0c1.75,0,3.7-.66,5.18,1-1.73.92-3.59.46-5.39.46q-208.72,0-417.46,0C71.68,177.89,69.82,178.34,68.08,177.44Z"/><path class="cls-10" d="M68.08,177.44H496.33c0,.39-.05.77-.07,1.16-1.66-.06-3.32-.17-5-.17l-417.63,0c-1.83,0-3.65.12-5.48.18Z"/><path class="cls-11" d="M327.74,238.11a20.9,20.9,0,0,1,0-3.45c.27-1.64-1.3-4.28,2.22-4.33,2.88-.05,5.89-.19,6.63,3.48a46.67,46.67,0,0,1,.34,6.39c.25,4.05-1.24,5.88-5.68,6-5.09.12-3.23-3.24-3.53-5.61A20.32,20.32,0,0,1,327.74,238.11Z"/><path class="cls-12" d="M336.26,218a15.53,15.53,0,0,1-.62,2.94c-1,2.74-3.38,2.73-5.73,2.67-3-.06-2-2.39-2.11-4a18.15,18.15,0,0,1,0-4.42c.32-1.88-1.59-4.87,2.58-5,3.64-.12,5.64,1.24,5.85,4.92C336.29,215.75,336.26,216.41,336.26,218Z"/><path class="cls-13" d="M233.87,95.8c-1.82,17.49-3.73,35-5.41,52.46-.34,3.57-1.62,4.68-5.21,4.49-6.14-.33-12.31-.17-18.46-.05-2.52.05-3.79-.38-4.11-3.39q-6.23-57.37-12.84-114.7c-.49-4.26.88-5.3,4.66-4.8a22.93,22.93,0,0,0,3,0c11.27,0,11.12,0,12.29,11.46,2.71,26.39,5.58,52.77,8.41,79.35,1.64-.89,1.26-2.42,1.38-3.71,2.57-27.08,5.23-54.15,7.59-81.24.38-4.43,1.4-6.65,6.35-5.93,4.23.61,9.73-1.7,12.52.88s1.55,8.11,2,12.36q3.81,37.86,7.58,75.73a5.06,5.06,0,0,0,1,2.94c1.3-12.39,2.64-24.78,3.91-37.17,1.74-17,3.51-34,5.09-51,.28-3,1.42-4,4.34-3.74a57.58,57.58,0,0,0,9.47,0c3.37-.31,3.78,1.05,3.44,4-3,25.86-5.82,51.75-8.71,77.62-1.42,12.69-2.94,25.37-4.21,38.07-.26,2.62-1.19,3.29-3.64,3.24-6.49-.13-13-.19-19.46,0-2.74.09-3.37-1.14-3.6-3.43q-2.74-27.23-5.6-54.43a3.23,3.23,0,0,1-.71-1.21C234.32,94.24,234.41,95.17,233.87,95.8Z"/><path class="cls-13" d="M402.44,70.86a4.28,4.28,0,0,0-1.65-3.75v6.07c0,24.88-.09,49.77.1,74.65,0,4-1.11,5-5,4.92-12.39-.17-12.39,0-12.39-12.3,0-35.18.07-70.35-.1-105.52,0-4.12.95-5.53,5.17-5.19a87.15,87.15,0,0,0,14.45,0c4-.34,5.35,1.42,6.28,5C414.6,54.89,420.1,75,425.54,95.2c.34,1.24.73,2.46,1.15,3.87,1.63-1.54.88-3.19.88-4.64.05-20.07.1-40.15-.06-60.22,0-3.47.91-4.47,4.41-4.47,12.71,0,12.71-.11,12.71,12.54,0,35.17-.06,70.34.09,105.51,0,3.88-.94,5.35-4.93,4.93-4.92-.53-11.16,1.94-14.49-1-3-2.65-3.07-8.77-4.35-13.39q-8.7-31.35-17.36-62.72A4.38,4.38,0,0,1,402.44,70.86Z"/><path class="cls-13" d="M97.4,87.23c9.91,4.86,13.24,13.13,13.54,23,.17,5.63.25,11.28,0,16.9-.76,15-9.73,24.35-24.85,25.2-10.6.59-21.26.13-31.9.36-4.08.09-3-2.66-3-4.71q-.06-46,0-92c0-7.14.18-14.27-.08-21.4-.12-3.52.56-5,4.54-4.82,9.13.32,18.28,0,27.42.12,16.79.18,25.75,9.14,26.09,26,0,2,0,4,0,6C109.39,72,107.42,81.32,97.4,87.23Z"/><path class="cls-13" d="M120.89,91c0-11.61-.32-23.23.06-34.83.61-18.32,11.43-28.05,30.36-27.86,17.16.16,28,10.87,28.23,28.64q.42,34.09,0,68.19c-.15,11.18-3.72,21.27-15,26-11.67,4.85-23.42,4.67-34-3.25-6.88-5.16-9.34-12.83-9.55-21C120.66,114.92,120.89,103,120.89,91Z"/><path class="cls-13" d="M457,91c0-11.29-.18-22.58.05-33.86.25-11.89,4-22,16.13-26.72a35.13,35.13,0,0,1,24.92-.14c9.84,3.5,14.58,11.26,15.88,21.1.74,5.56.41,11.26.65,16.89.09,2.14-.77,3.1-2.91,2.9a4.17,4.17,0,0,0-.5,0c-4.65-.07-10.43,1.54-13.65-.64-3.56-2.4-1-8.55-1.28-13.05-.45-7-3.17-10.77-8.74-11.37-6.65-.73-10.9,3.33-11,11-.14,11.78,0,23.56,0,35.35,0,10.79-.06,21.58,0,32.37,0,7,2.53,10.37,8,11.36s9.88-1.56,10.94-6.89c1.69-8.52.54-17.2.63-25.81,0-3-2.8-1.87-4.25-1.71-3.87.42-4.95-1.09-4.6-4.76.38-4.1-1.29-9.58.79-12,2.46-2.86,8.13-1,12.38-.91,4.59,0,10.7-2.14,13.34,1,2.26,2.65.79,8.56.79,13,0,10.12.26,20.26-.32,30.36-.94,16.26-11.46,25.61-28.26,25.86-16.5.24-27.4-9.26-28.71-25.42-.5-6.27-.25-12.61-.29-18.91S457,97.32,457,91Z"/><path class="cls-13" d="M290.74,90.89c0-18.91.09-37.81-.09-56.71,0-3.49.9-4.71,4.42-4.41a61.93,61.93,0,0,0,10.46,0c3.84-.34,5.05.83,5,4.87-.17,31.5,0,63-.2,94.51,0,4.42.9,6,5.63,5.75,7.62-.43,15.28,0,22.93-.15,2.53,0,3.39.76,3.51,3.39.7,14.52.77,14.52-13.7,14.52-11.3,0-22.6-.11-33.9.07-3.26.06-4.18-.87-4.16-4.14C290.81,129.36,290.74,110.12,290.74,90.89Z"/><path class="cls-13" d="M350.3,90.76c0-18.74.08-37.48-.08-56.21,0-3.55.64-5.2,4.59-4.78,4.75.51,10.92-1.92,14,.88s.93,9.09,1,13.83c.09,34.32,0,68.65.14,103,0,4-.72,5.78-5.09,5.28-4.58-.53-10.52,1.83-13.48-.88s-.9-8.77-.94-13.34C350.21,122.59,350.3,106.67,350.3,90.76Z"/><path class="cls-14" d="M445.61,151.2V31.32h.47V151.4Z"/><path class="cls-15" d="M349.38,31.32V151.18h-.45v-120Z"/><path class="cls-16" d="M402.44,70.86c.39,1.59.77,3.18,1.15,4.77a24.81,24.81,0,0,0-1.12,8.31q.07,31.34,0,62.68V152c-1.29-1.56-.91-2.75-.91-3.85q0-36.57,0-73.13C401.58,73.63,401.09,72,402.44,70.86Z"/><path class="cls-17" d="M456,54v74.25h-.31V54Z"/><path class="cls-18" d="M119.79,58.24v68h-.46V58Z"/><path class="cls-19" d="M233.87,95.8V90.2c2.44,1.29,1.94,3,1.79,4.67Z"/><path class="cls-7" d="M70.88,115.91v-15.4c0-1.53-.11-3.06,2.16-3,3.81,0,7.66-.25,11.38.72,4,1,6,4.11,6.53,8a71.92,71.92,0,0,1,.19,20.77c-.76,5.38-3.54,7.62-9.12,7.88-11.14.51-11.13.51-11.13-10.44Q70.89,120.12,70.88,115.91Z"/><path class="cls-20" d="M70.88,63.49c0-2.82-.38-5.71.12-8.44.46-2.57-2.35-6.43,1.93-7.6,6.59-1.8,13.89.52,15.33,5a33.63,33.63,0,0,1-.16,22C86.5,78.85,75.62,82,71.78,79.58c-1.24-.77-.88-2-.88-3.15C70.86,72.12,70.88,67.8,70.88,63.49Z"/><path class="cls-7" d="M141,53.93c1.2-5.4,4.06-7.9,9.08-7.94s8.42,2.79,9.51,7.79a11.31,11.31,0,0,1,.27,2.46c0,23.39.12,46.77-.06,70.15-.07,7.75-6.25,11.74-13.41,9.21a7.57,7.57,0,0,1-5.4-7c.68-3.59-.12-7.18-.1-10.78q.18-27.54,0-55.09C140.87,59.79,142,56.87,141,53.93Z"/><path class="cls-21" d="M141,53.93c1.35,1.15.93,2.73.93,4.16q0,33.18,0,66.36c0,1.43.45,3-.94,4.15-.24-2.28-.68-4.57-.69-6.86q-.08-30.46,0-60.95A66.15,66.15,0,0,1,141,53.93Z"/></svg>