<svg id="Camada_1" data-name="Camada 1" xmlns="http://www.w3.org/2000/svg" viewBox="0 0 227.32 234.49"><defs><style>.cls-1{fill:#fff;}</style></defs><polygon class="cls-1" points="66 63 87 1.5 106.5 57 129 33 134.99 67.5 178.49 57 160.49 81 212.99 109.49 170.99 125.99 202.49 166.49 160.49 161.99 173.99 220.49 123 176.99 99 218.99 87 175.49 31.5 206.99 40.5 149.99 1.5 149.99 33 125.99 4.5 94.5 37.5 93 15 37.5 66 63"/><path d="M174,222a1.48,1.48,0,0,1-1-.36L123.4,179.31l-23.1,40.42a1.5,1.5,0,0,1-2.75-.34L86.06,177.75,32.24,208.29a1.48,1.48,0,0,1-1.59-.07,1.49,1.49,0,0,1-.63-1.47l8.72-55.26H1.5a1.5,1.5,0,0,1-.91-2.69l30.2-23L3.39,95.5a1.5,1.5,0,0,1,1-2.5l30.88-1.41L13.61,38.06a1.5,1.5,0,0,1,2.06-1.9L65.13,60.89,85.58,1A1.48,1.48,0,0,1,87,0h0a1.5,1.5,0,0,1,1.41,1l18.68,53.17L127.9,32a1.51,1.51,0,0,1,1.52-.41,1.48,1.48,0,0,1,1.05,1.18l5.73,32.92,41.94-10.12a1.48,1.48,0,0,1,1.6.63,1.5,1.5,0,0,1-.05,1.73L162.74,80.51l51,27.67a1.49,1.49,0,0,1,.79,1.41,1.51,1.51,0,0,1-1,1.3l-40.13,15.77,30.26,38.91a1.51,1.51,0,0,1,.13,1.65,1.49,1.49,0,0,1-1.47.76l-39.9-4.27,13,56.44a1.49,1.49,0,0,1-.68,1.62A1.46,1.46,0,0,1,174,222Zm-51-46.5a1.54,1.54,0,0,1,1,.36l47.54,40.55L159,162.33a1.5,1.5,0,0,1,.34-1.33,1.47,1.47,0,0,1,1.28-.5l38.49,4.12-29.33-37.71a1.5,1.5,0,0,1,.63-2.31l39-15.32-49.66-27a1.45,1.45,0,0,1-.75-1,1.47,1.47,0,0,1,.26-1.22l15.5-20.67L135.34,69a1.47,1.47,0,0,1-1.17-.2,1.49,1.49,0,0,1-.65-1L128,36.22,107.59,58a1.5,1.5,0,0,1-1.4.44,1.46,1.46,0,0,1-1.11-1L87,6.08l-19.6,57.4a1.51,1.51,0,0,1-2.09.86L17.88,40.62l21,51.81a1.51,1.51,0,0,1-.13,1.37,1.49,1.49,0,0,1-1.19.69L7.75,95.85,34.11,125a1.49,1.49,0,0,1,.38,1.14,1.53,1.53,0,0,1-.58,1.06l-28,21.3H40.5a1.49,1.49,0,0,1,1.14.53,1.5,1.5,0,0,1,.34,1.21l-8.51,53.92,52.79-30a1.5,1.5,0,0,1,2.18.9l11,40,22.21-38.86a1.52,1.52,0,0,1,1-.74Z"/><polygon points="80.33 77 101.33 15.5 120.83 71 143.33 47 149.33 81.5 192.82 71 174.83 95 227.32 123.49 185.33 139.99 216.82 180.49 174.83 175.99 188.32 234.49 137.33 190.99 113.33 232.99 101.33 189.49 45.83 220.99 54.83 163.99 15.83 163.99 47.33 139.99 18.83 108.5 51.83 107 29.33 51.5 80.33 77"/><polygon class="cls-1" points="66 63 87 1.5 106.5 57 129 33 134.99 67.5 178.49 57 160.49 81 212.99 109.49 170.99 125.99 202.49 166.49 160.49 161.99 173.99 220.49 123 176.99 99 218.99 87 175.49 31.5 206.99 40.5 149.99 1.5 149.99 33 125.99 4.5 94.5 37.5 93 15 37.5 66 63"/><path d="M174,222a1.48,1.48,0,0,1-1-.36L123.4,179.31l-23.1,40.42a1.5,1.5,0,0,1-2.75-.34L86.06,177.75,32.24,208.29a1.48,1.48,0,0,1-1.59-.07,1.49,1.49,0,0,1-.63-1.47l8.72-55.26H1.5a1.5,1.5,0,0,1-.91-2.69l30.2-23L3.39,95.5a1.5,1.5,0,0,1,1-2.5l30.88-1.41L13.61,38.06a1.5,1.5,0,0,1,2.06-1.9L65.13,60.89,85.58,1A1.48,1.48,0,0,1,87,0h0a1.5,1.5,0,0,1,1.41,1l18.68,53.17L127.9,32a1.51,1.51,0,0,1,1.52-.41,1.48,1.48,0,0,1,1.05,1.18l5.73,32.92,41.94-10.12a1.48,1.48,0,0,1,1.6.63,1.5,1.5,0,0,1-.05,1.73L162.74,80.51l51,27.67a1.49,1.49,0,0,1,.79,1.41,1.51,1.51,0,0,1-1,1.3l-40.13,15.77,30.26,38.91a1.51,1.51,0,0,1,.13,1.65,1.49,1.49,0,0,1-1.47.76l-39.9-4.27,13,56.44a1.49,1.49,0,0,1-.68,1.62A1.46,1.46,0,0,1,174,222Zm-51-46.5a1.54,1.54,0,0,1,1,.36l47.54,40.55L159,162.33a1.5,1.5,0,0,1,.34-1.33,1.47,1.47,0,0,1,1.28-.5l38.49,4.12-29.33-37.71a1.5,1.5,0,0,1,.63-2.31l39-15.32-49.66-27a1.45,1.45,0,0,1-.75-1,1.47,1.47,0,0,1,.26-1.22l15.5-20.67L135.34,69a1.47,1.47,0,0,1-1.17-.2,1.49,1.49,0,0,1-.65-1L128,36.22,107.59,58a1.5,1.5,0,0,1-1.4.44,1.46,1.46,0,0,1-1.11-1L87,6.08l-19.6,57.4a1.51,1.51,0,0,1-2.09.86L17.88,40.62l21,51.81a1.51,1.51,0,0,1-.13,1.37,1.49,1.49,0,0,1-1.19.69L7.75,95.85,34.11,125a1.49,1.49,0,0,1,.38,1.14,1.53,1.53,0,0,1-.58,1.06l-28,21.3H40.5a1.49,1.49,0,0,1,1.14.53,1.5,1.5,0,0,1,.34,1.21l-8.51,53.92,52.79-30a1.5,1.5,0,0,1,2.18.9l11,40,22.21-38.86a1.52,1.52,0,0,1,1-.74Z"/></svg>